<svg xmlns="http://www.w3.org/2000/svg" xmlns:xlink="http://www.w3.org/1999/xlink" width="500" zoomAndPan="magnify" viewBox="0 0 375 374.999991" height="500" preserveAspectRatio="xMidYMid meet" version="1.0"><defs><filter x="0%" y="0%" width="100%" height="100%" id="3065dac15e"><feColorMatrix values="0 0 0 0 1 0 0 0 0 1 0 0 0 0 1 0 0 0 1 0" color-interpolation-filters="sRGB"/></filter><g/><mask id="e76395033d"><g filter="url(#3065dac15e)"><rect x="-37.5" width="450" fill="#000000" y="-37.499999" height="449.999989" fill-opacity="0.6275"/></g></mask><clipPath id="f25451872d"><path d="M 0.515625 0.335938 L 271.160156 0.335938 L 271.160156 270.335938 L 0.515625 270.335938 Z M 0.515625 0.335938 " clip-rule="nonzero"/></clipPath><clipPath id="479caa6a5d"><rect x="0" width="272" y="0" height="271"/></clipPath></defs><g mask="url(#e76395033d)"><g transform="matrix(1, 0, 0, 1, 49, 52)"><g clip-path="url(#479caa6a5d)"><g clip-path="url(#f25451872d)"><path fill="#55a630" d="M 135.699219 0.335938 C 61.976562 0.335938 0.6875 60.957031 0.660156 133.902344 C 0.632812 210.054688 60.398438 270.332031 135.9375 270.335938 C 210.4375 270.34375 271.003906 209.90625 271.089844 135.476562 C 271.175781 61.113281 210.285156 0.339844 135.699219 0.335938 Z M 244.65625 121.082031 C 244.605469 120.84375 244.582031 120.601562 244.53125 120.363281 C 244.15625 118.496094 242.507812 115.769531 243.632812 114.976562 C 245.261719 113.828125 247.480469 115.945312 249.457031 116.613281 C 250.824219 117.078125 252.035156 117.980469 253.375 118.527344 C 255.316406 119.320312 256.542969 120.40625 255.609375 122.527344 C 255.234375 131.914062 254.269531 141.070312 252.203125 150.085938 C 252.015625 150.910156 251.601562 151.710938 251.574219 152.535156 C 251.519531 154.039062 250.378906 154.488281 249.386719 154.464844 C 247.894531 154.425781 248.46875 152.972656 248.46875 152.167969 C 248.421875 141.652344 246.859375 131.328125 244.65625 121.082031 Z M 72.980469 229.46875 C 73.132812 229.148438 73.285156 228.828125 73.433594 228.507812 C 79.371094 229.339844 85.304688 230.167969 92.207031 231.136719 C 87.660156 232.589844 84.054688 234.300781 80.292969 234.78125 C 76.5625 235.257812 75.441406 231.273438 72.980469 229.46875 Z M 78.035156 242.289062 C 80.167969 245.652344 82.492188 248.894531 85.226562 252.925781 C 79.574219 250.734375 75.09375 248.34375 70.605469 245.949219 C 68.871094 245.023438 69.074219 244.015625 70.199219 242.820312 C 70.699219 242.289062 71.195312 241.75 71.75 241.277344 C 75.371094 238.1875 75.484375 238.265625 78.035156 242.289062 Z M 73.953125 226.882812 C 72.410156 226.589844 71.714844 225.769531 71.222656 224.386719 C 67.269531 213.332031 64.839844 201.9375 63.558594 190.296875 C 63.144531 186.542969 63.039062 182.757812 62.65625 179.003906 C 62.445312 176.964844 62.914062 175.917969 65.191406 175.59375 C 70.488281 174.832031 75.785156 173.964844 81 172.785156 C 83.710938 172.171875 84.378906 173.492188 84.828125 175.523438 C 86.613281 183.554688 89.015625 191.410156 91.683594 199.179688 C 94.71875 208.015625 98.175781 216.683594 102.421875 225.023438 C 104.492188 229.089844 104.433594 229.121094 100.019531 229.945312 C 99.421875 230.058594 98.820312 230.160156 98.355469 230.242188 C 90.109375 229.226562 81.988281 228.402344 73.953125 226.882812 Z M 23.144531 118.636719 C 23.386719 125.09375 23.636719 131.550781 24.839844 137.921875 C 25.835938 143.175781 26.890625 148.421875 27.875 153.675781 C 28.019531 154.460938 28.925781 155.328125 28.117188 156.042969 C 27.398438 156.679688 26.570312 156.046875 25.792969 155.695312 C 23.363281 154.59375 20.921875 153.511719 18.441406 152.527344 C 16.296875 151.675781 15.394531 150.230469 15.953125 147.953125 C 16.570312 138.410156 17.582031 128.90625 19.683594 119.546875 C 19.785156 119.078125 20.101562 118.660156 20.210938 118.191406 C 20.476562 117.089844 21.136719 116.375 22.261719 116.542969 C 23.460938 116.722656 23.113281 117.871094 23.144531 118.636719 Z M 24.664062 107.460938 C 24.398438 100.300781 28.359375 93.886719 31.300781 87.148438 C 31.84375 85.90625 32.605469 85.71875 33.90625 86.351562 C 44.691406 91.613281 56.171875 94.703125 67.867188 97.132812 C 68.761719 97.316406 70.667969 96.796875 70.394531 98.898438 C 70.1875 100.472656 70.03125 101.824219 67.832031 102.21875 C 57.226562 104.121094 46.613281 106.023438 36.320312 109.335938 C 33.554688 110.226562 30.667969 110.875 28.070312 112.125 C 24.765625 113.707031 24.363281 112.265625 24.660156 109.519531 C 24.710938 109.039062 24.664062 108.542969 24.664062 107.460938 Z M 198.464844 42.429688 C 192.453125 41.554688 186.628906 40.710938 180.804688 39.863281 C 180.816406 39.664062 180.824219 39.46875 180.835938 39.269531 C 184.046875 38.238281 187.25 37.175781 190.476562 36.1875 C 193.105469 35.382812 196.398438 37.902344 198.464844 42.429688 Z M 193.40625 28.246094 C 191.351562 25.023438 189.128906 21.90625 186.539062 18.097656 C 192.277344 20.121094 196.933594 22.648438 201.546875 25.261719 C 202.671875 25.898438 202.566406 26.785156 201.730469 27.660156 C 201.308594 28.101562 200.929688 28.582031 200.492188 29.003906 C 196.660156 32.714844 196.195312 32.621094 193.40625 28.246094 Z M 197.386719 43.910156 C 199.128906 44.207031 199.847656 44.976562 200.402344 46.503906 C 204.527344 57.878906 206.929688 69.628906 208.195312 81.628906 C 208.566406 85.136719 208.664062 88.671875 209.027344 92.179688 C 209.214844 93.980469 208.578125 94.925781 206.832031 95.234375 C 201.082031 96.25 195.320312 97.214844 189.589844 98.335938 C 187.226562 98.800781 187.257812 96.949219 186.976562 95.753906 C 185.03125 87.519531 182.621094 79.421875 179.867188 71.429688 C 176.832031 62.617188 173.363281 53.976562 169.121094 45.65625 C 167.007812 41.507812 167.144531 41.332031 171.65625 41.042969 C 172.75 40.972656 173.847656 40.945312 174.882812 40.898438 C 182.472656 41.59375 189.941406 42.644531 197.386719 43.910156 Z M 228.3125 89.265625 C 223.550781 90.738281 218.765625 92.136719 214 93.585938 C 211.085938 94.46875 210.597656 93.335938 210.480469 90.980469 C 209.941406 80.132812 208.398438 69.421875 205.753906 58.890625 C 204.664062 54.5625 203.296875 50.308594 202.054688 46.023438 C 207.144531 49.734375 210.863281 54.523438 214.519531 59.359375 C 220.566406 67.351562 225.617188 75.953125 230.25 84.828125 C 231.636719 87.488281 231.070312 88.410156 228.3125 89.265625 Z M 232.976562 90.78125 C 235.695312 97.226562 238.402344 103.675781 240.328125 111.15625 C 230.710938 108.195312 221.78125 105.636719 212.574219 104.238281 C 211.773438 104.113281 211.296875 103.714844 211.015625 102.9375 C 209.519531 98.863281 211.125 95.742188 215.386719 94.703125 C 220.351562 93.492188 225.207031 91.96875 229.992188 90.183594 C 231.082031 89.773438 232.234375 89.023438 232.976562 90.78125 Z M 209.222656 114.40625 C 208.285156 131.464844 205.695312 148.238281 201.558594 164.796875 C 200.890625 167.464844 198.949219 167.96875 196.957031 167.835938 C 194.777344 167.691406 195.597656 165.550781 195.601562 164.296875 C 195.640625 144.445312 193.28125 124.871094 189.054688 105.5 C 188.609375 103.457031 188.738281 102.027344 191.652344 102.546875 C 196.898438 103.484375 202.195312 104.109375 207.476562 104.835938 C 209.109375 105.058594 209.285156 106.097656 209.242188 107.46875 C 209.167969 109.777344 209.222656 112.09375 209.222656 114.40625 Z M 197.6875 172.535156 C 196.878906 172.269531 195.449219 172.746094 195.6875 171.164062 C 195.945312 169.449219 197.40625 169.359375 198.757812 169.296875 C 199.589844 169.257812 200.207031 169.519531 199.960938 170.613281 C 199.519531 171.5625 199.554688 173.144531 197.6875 172.535156 Z M 198.433594 175.796875 C 197.710938 177.8125 197.011719 179.839844 196.300781 181.859375 C 196.058594 181.84375 195.8125 181.828125 195.566406 181.8125 C 195.566406 179.644531 195.570312 177.472656 195.566406 175.304688 C 195.566406 174.171875 196.085938 173.828125 197.179688 174.144531 C 198.050781 174.398438 198.875 174.570312 198.433594 175.796875 Z M 147.082031 167.902344 C 144.488281 167.976562 144.886719 166.125 144.984375 164.617188 C 145.605469 154.882812 145.738281 145.132812 146.40625 135.382812 C 146.40625 125.636719 146.464844 115.886719 146.363281 106.140625 C 146.34375 103.972656 146.921875 103.304688 149.195312 103.152344 C 158.4375 102.527344 167.730469 102.585938 176.917969 101.195312 C 177.398438 101.121094 177.894531 101.167969 178.382812 101.160156 C 185.933594 101.050781 186.441406 101.335938 187.988281 108.609375 C 190.433594 120.117188 191.847656 131.761719 192.953125 143.480469 C 193.628906 150.644531 193.121094 157.859375 194.234375 164.972656 C 194.675781 167.773438 193.3125 168.382812 190.828125 168.78125 C 176.175781 171.144531 161.671875 167.480469 147.082031 167.902344 Z M 166.414062 170.207031 C 159.984375 171.132812 153.585938 171.957031 147.121094 171.640625 C 146.242188 171.597656 144.964844 171.992188 145.011719 170.40625 C 145.046875 169.15625 146.085938 169.253906 146.898438 169.289062 C 153.40625 169.578125 159.90625 169.898438 166.414062 170.207031 Z M 143.679688 164.878906 C 143.722656 167.136719 142.851562 167.855469 140.632812 167.738281 C 137.101562 167.554688 133.546875 167.476562 130.019531 167.671875 C 127.480469 167.8125 126.613281 167.085938 126.652344 164.453125 C 126.792969 154.695312 128.136719 115.675781 128.042969 105.914062 C 128.019531 103.816406 128.714844 103.15625 130.773438 103.25 C 134.1875 103.398438 137.625 103.5 141.027344 103.253906 C 144.050781 103.035156 145.070312 103.9375 144.929688 107.074219 C 144.230469 122.671875 144.757812 138.304688 143.839844 153.902344 C 143.625 157.554688 143.609375 161.222656 143.679688 164.878906 Z M 122.039062 167.941406 C 111.3125 168.285156 100.589844 168.871094 89.871094 169.492188 C 86.121094 169.707031 84.738281 168.148438 83.964844 164.472656 C 80.132812 146.226562 78.464844 127.753906 77.523438 109.1875 C 77.175781 102.257812 77.300781 102.703125 84.125 101.753906 C 91.132812 100.777344 97.988281 101.613281 104.90625 101.976562 C 110.691406 102.28125 117.695312 102.859375 123.695312 103.148438 C 124.644531 103.191406 125.390625 103.976562 125.390625 104.925781 L 125.386719 164.226562 C 125.421875 166.789062 124.910156 167.847656 122.039062 167.941406 Z M 123.234375 171.632812 C 117.101562 171.371094 110.972656 171.0625 104.84375 170.769531 C 104.84375 170.554688 104.847656 170.339844 104.847656 170.125 C 110.996094 169.839844 117.148438 169.542969 123.300781 169.292969 C 124.074219 169.261719 125.140625 169.042969 125.238281 170.3125 C 125.355469 171.863281 124.140625 171.671875 123.234375 171.632812 Z M 62.203125 170.222656 C 61.996094 169.011719 61.699219 167.386719 64.019531 167.75 C 68.070312 168.386719 72.136719 168.921875 76.199219 169.5 C 77.976562 169.757812 79.753906 170.023438 81.53125 170.285156 C 81.570312 170.507812 81.609375 170.730469 81.648438 170.949219 C 75.644531 172.097656 69.675781 173.554688 63.617188 174.238281 C 61.257812 174.503906 62.445312 171.660156 62.203125 170.222656 Z M 79.445312 168.296875 C 74.613281 167.195312 69.65625 166.5625 64.71875 166.019531 C 62.308594 165.753906 62.058594 164.609375 62.308594 162.644531 C 62.582031 160.472656 62.648438 158.269531 62.808594 156.082031 C 63.347656 139.117188 66.007812 122.464844 70.101562 106.007812 C 70.746094 103.40625 72.3125 103.105469 74.328125 103.230469 C 76.644531 103.375 75.84375 105.398438 75.96875 106.601562 C 76.628906 112.894531 76.253906 119.226562 76.789062 125.566406 C 77.90625 138.878906 79.691406 152.0625 82.460938 165.113281 C 83.097656 168.109375 82.917969 169.085938 79.445312 168.296875 Z M 74.761719 96.871094 C 73.367188 96.707031 72.851562 96 73.335938 94.644531 C 74.050781 92.65625 74.761719 90.667969 75.472656 88.679688 C 75.714844 88.746094 75.953125 88.808594 76.191406 88.875 C 76.191406 90.914062 76.207031 92.953125 76.1875 94.996094 C 76.175781 95.945312 76.316406 97.054688 74.761719 96.871094 Z M 73.84375 98.21875 C 74.898438 98.328125 75.792969 98.515625 75.75 99.839844 C 75.695312 101.5 74.480469 101.347656 73.386719 101.347656 C 72.566406 101.347656 71.496094 101.550781 71.730469 100.164062 C 71.921875 99.035156 72.359375 98.066406 73.84375 98.21875 Z M 124.558594 101.433594 C 118.003906 101.582031 111.492188 100.925781 104.980469 100.054688 C 111.558594 100.003906 118.066406 99.230469 124.605469 98.988281 C 125.492188 98.957031 126.75 98.679688 126.722656 100.222656 C 126.691406 101.730469 125.460938 101.414062 124.558594 101.433594 Z M 141.726562 171.648438 C 139.414062 171.65625 137.105469 171.652344 134.792969 171.652344 C 134.792969 171.648438 134.792969 171.640625 134.792969 171.636719 C 132.601562 171.636719 130.414062 171.652344 128.222656 171.628906 C 127.460938 171.621094 126.746094 171.445312 126.75 170.449219 C 126.753906 169.464844 127.464844 169.269531 128.226562 169.265625 C 132.726562 169.25 137.226562 169.253906 141.730469 169.269531 C 142.488281 169.269531 143.234375 169.429688 143.199219 170.425781 C 143.167969 171.339844 142.542969 171.648438 141.726562 171.648438 Z M 143.011719 176.15625 C 142.351562 187.707031 141.800781 199.261719 141.136719 210.8125 C 140.863281 215.550781 140.3125 220.273438 140.0625 225.011719 C 139.972656 226.699219 139.519531 227.476562 137.742188 227.328125 C 136.410156 227.222656 135.058594 227.3125 133.71875 227.3125 C 127.550781 227.3125 127.476562 227.3125 127.398438 220.980469 C 127.3125 213.914062 126.722656 184.425781 126.613281 176.75 C 126.582031 174.5 127.046875 173.421875 129.601562 173.570312 C 133.25 173.78125 136.921875 173.726562 140.578125 173.609375 C 142.542969 173.542969 143.117188 174.277344 143.011719 176.15625 Z M 129.980469 98.984375 C 132.292969 98.972656 134.605469 98.980469 136.917969 98.980469 C 136.917969 98.976562 136.917969 98.972656 136.917969 98.96875 C 138.863281 98.96875 140.8125 98.933594 142.757812 98.980469 C 143.660156 99.003906 144.867188 98.734375 144.828125 100.277344 C 144.800781 101.4375 143.914062 101.5625 143.035156 101.628906 C 138.65625 101.949219 134.28125 101.863281 129.90625 101.542969 C 129.175781 101.488281 128.40625 101.394531 128.34375 100.410156 C 128.269531 99.242188 129.042969 98.992188 129.980469 98.984375 Z M 146.519531 100.066406 C 146.644531 98.792969 147.691406 98.957031 148.464844 99.066406 C 153.996094 99.855469 159.582031 99.632812 165.109375 100.089844 C 159.597656 101.746094 153.996094 101.203125 148.457031 101.480469 C 147.5 101.53125 146.378906 101.566406 146.519531 100.066406 Z M 209.21875 102.773438 C 209.019531 104.015625 207.863281 103.121094 207.105469 103.007812 C 201.019531 102.105469 194.933594 101.21875 187.957031 100.199219 C 194.878906 98.9375 200.925781 97.820312 206.980469 96.75 C 207.746094 96.617188 208.949219 96.183594 209.121094 97.363281 C 209.378906 99.144531 209.503906 101.015625 209.21875 102.773438 Z M 185.378906 96.089844 C 185.894531 98.085938 185.171875 99.128906 183.054688 99.117188 C 181.589844 99.109375 180.125 99.117188 178.660156 99.117188 C 168.675781 98.667969 158.730469 97.410156 148.714844 97.703125 C 146.96875 97.753906 146.367188 97.117188 146.398438 95.382812 C 146.667969 78.914062 145.933594 62.460938 145.5625 46.003906 C 145.511719 43.890625 146.265625 43.355469 148.277344 43.253906 C 153.265625 43 158.25 42.578125 163.207031 41.992188 C 164.867188 41.796875 165.625 42.3125 166.316406 43.660156 C 174.835938 60.351562 180.742188 77.988281 185.378906 96.089844 Z M 147.363281 41.976562 C 146.296875 42.132812 145.402344 41.90625 145.347656 40.539062 C 145.292969 39.097656 146.269531 39.003906 147.296875 39.054688 C 152.480469 39.316406 157.660156 39.597656 162.839844 39.871094 C 157.800781 41.734375 152.503906 41.222656 147.363281 41.976562 Z M 161.25 38.332031 C 156.257812 38.121094 151.269531 37.847656 146.277344 37.59375 C 145.386719 37.550781 145.03125 37.027344 144.972656 36.179688 C 144.472656 28.691406 143.957031 21.199219 143.394531 12.914062 C 151.621094 20.035156 157.304688 27.988281 162.214844 36.570312 C 162.996094 37.933594 162.558594 38.386719 161.25 38.332031 Z M 142.125 42.019531 C 140.546875 42.019531 138.972656 42.019531 137.394531 42.019531 C 137.394531 42.027344 137.394531 42.035156 137.394531 42.046875 C 136.179688 42.046875 134.96875 42.082031 133.757812 42.03125 C 132.953125 41.996094 131.90625 42.140625 132.058594 40.796875 C 132.15625 39.953125 132.28125 38.980469 133.414062 38.96875 C 136.445312 38.9375 139.476562 38.964844 142.507812 39.015625 C 143.4375 39.03125 143.617188 39.734375 143.664062 40.53125 C 143.730469 41.664062 143.121094 42.019531 142.125 42.019531 Z M 134.742188 43.597656 C 135.101562 43.65625 135.472656 43.632812 135.839844 43.636719 C 144.070312 43.707031 144.144531 43.703125 144.308594 52.195312 C 144.433594 58.660156 144.878906 86.960938 145.015625 94.640625 C 145.066406 97.242188 143.960938 97.675781 141.714844 97.539062 C 138.183594 97.328125 134.636719 97.265625 131.101562 97.367188 C 129.109375 97.425781 128.558594 96.695312 128.652344 94.820312 C 129.058594 86.785156 129.257812 78.738281 129.75 70.707031 C 130.25 62.558594 131.101562 54.433594 131.597656 46.285156 C 131.742188 43.964844 132.628906 43.261719 134.742188 43.597656 Z M 127.929688 42.003906 C 121.421875 41.570312 114.917969 41.070312 108.414062 40.597656 C 108.453125 40.316406 108.496094 40.039062 108.535156 39.757812 C 114.960938 39.476562 121.386719 39.164062 127.8125 38.949219 C 128.847656 38.914062 130.417969 38.316406 130.464844 40.386719 C 130.511719 42.375 129.066406 42.078125 127.929688 42.003906 Z M 127.566406 43.375 C 129.246094 43.371094 130.222656 43.597656 130.070312 45.816406 C 128.945312 62.105469 127.949219 78.40625 126.976562 94.703125 C 126.867188 96.523438 126.601562 97.691406 124.359375 97.652344 C 113.859375 97.460938 103.398438 98.234375 94.691406 99.09375 C 88.402344 99.300781 84.011719 98.050781 79.523438 97.671875 C 76.917969 97.453125 77.894531 95.636719 77.78125 94.148438 C 76.484375 77.015625 85.949219 63.613281 93.042969 49.320312 C 96.289062 42.78125 100.097656 39.566406 107.921875 41.679688 C 114.234375 43.386719 120.964844 43.390625 127.566406 43.375 Z M 80.066406 71.148438 C 79.234375 67.003906 80.625 63.027344 81.289062 59.0625 C 82.105469 54.203125 83.664062 49.46875 84.730469 44.640625 C 85.167969 42.65625 86.015625 41.734375 88.128906 41.761719 C 90.660156 41.789062 93.132812 40.652344 96.300781 41.378906 C 90.066406 51.171875 84.878906 61.003906 80.066406 71.148438 Z M 86.277344 34.601562 C 85.75 35.789062 84.699219 35.582031 83.777344 35.210938 C 81.554688 34.316406 79.148438 33.800781 77.035156 32.121094 C 81.308594 28.78125 85.640625 25.777344 91.375 22.929688 C 89.398438 27.472656 87.867188 31.046875 86.277344 34.601562 Z M 77.058594 34.089844 C 78.804688 34.933594 80.652344 35.570312 82.429688 36.359375 C 83.445312 36.808594 85.136719 36.652344 84.90625 38.445312 C 84.691406 40.105469 83.484375 40.816406 81.882812 41.074219 C 77.085938 41.847656 72.304688 42.722656 67.5 43.464844 C 66.21875 43.660156 65.039062 44.675781 63.011719 43.703125 C 66.742188 40.46875 70.199219 37.453125 73.679688 34.46875 C 74.691406 33.601562 75.785156 33.476562 77.058594 34.089844 Z M 82.332031 42.59375 C 82.652344 42.558594 83.003906 42.785156 83.457031 42.925781 C 80.003906 54.730469 78.160156 66.75 76.730469 78.898438 C 76.089844 84.332031 73.453125 89.527344 71.722656 94.832031 C 71.335938 96.015625 70.578125 96.097656 69.429688 95.863281 C 57.722656 93.472656 46.1875 90.578125 35.328125 85.398438 C 33.347656 84.453125 32.984375 83.726562 34.089844 81.699219 C 40.824219 69.351562 49.15625 58.1875 58.757812 47.945312 C 59.328125 47.339844 60.042969 46.644531 60.800781 46.476562 C 67.917969 44.871094 75.058594 43.355469 82.332031 42.59375 Z M 34.628906 77.15625 C 33.90625 78.414062 33.246094 79.714844 32.472656 80.941406 C 31.972656 81.726562 31.996094 83.296875 30.292969 82.566406 C 28.875 81.960938 28.664062 80.921875 29.066406 79.589844 C 29.910156 76.808594 30.695312 74.003906 31.597656 71.238281 C 32.234375 69.28125 33.226562 67.417969 33.71875 65.429688 C 36.5625 53.898438 44.667969 49.085938 56.257812 48.097656 C 47.710938 57.074219 40.628906 66.71875 34.628906 77.15625 Z M 29.242188 83.839844 C 29.96875 84.148438 30.789062 84.441406 30.113281 85.621094 C 29.144531 87.324219 28.652344 89.296875 27.171875 90.925781 C 26.328125 88.644531 27.648438 86.796875 27.757812 84.832031 C 27.800781 84.058594 28.351562 83.457031 29.242188 83.839844 Z M 24.640625 118.089844 C 24.628906 116.621094 24.460938 115.214844 26.292969 114.511719 C 39.445312 109.457031 53.144531 106.535156 67.03125 104.109375 C 68.730469 103.90625 69.054688 104.691406 68.617188 106.269531 C 65.113281 118.957031 63.109375 131.914062 61.820312 144.980469 C 61.246094 150.792969 61.066406 156.644531 60.863281 162.484375 C 60.792969 164.472656 60.425781 165.386719 58.144531 164.898438 C 49.738281 163.105469 41.394531 161.101562 33.199219 158.496094 C 31.425781 157.929688 30.296875 157.105469 29.824219 155.195312 C 26.800781 143.003906 24.742188 130.6875 24.640625 118.089844 Z M 58.613281 166.5625 C 61.476562 167.015625 60.855469 169.28125 60.757812 171.089844 C 60.660156 172.785156 61.75 174.820312 58.617188 175.570312 C 52.84375 176.957031 47.191406 178.878906 41.535156 180.722656 C 40.171875 181.167969 39.25 181.386719 38.589844 179.863281 C 35.804688 173.445312 33.214844 166.960938 31.28125 159.730469 C 40.570312 162.527344 49.457031 165.109375 58.613281 166.5625 Z M 46.910156 180.363281 C 50.382812 179.273438 53.929688 178.417969 57.398438 177.320312 C 59.816406 176.554688 60.914062 176.671875 61.105469 179.804688 C 61.886719 192.671875 63.753906 205.390625 67.460938 217.785156 C 68.214844 220.304688 69.035156 222.804688 69.824219 225.316406 C 58.628906 214.730469 50.046875 202.5625 43.136719 189.21875 C 39.746094 182.667969 39.8125 182.589844 46.910156 180.363281 Z M 86.3125 175.03125 C 85.792969 173.023438 86.015625 172.25 88.375 171.78125 C 93.324219 170.796875 98.144531 171.949219 102.925781 172.378906 C 109.488281 172.976562 116.078125 172.597656 122.625 173.421875 C 124.929688 173.710938 125.398438 174.414062 125.375 176.5 C 125.277344 184.539062 126.003906 216.453125 126.117188 224.367188 C 126.148438 226.441406 125.816406 227.378906 123.421875 227.476562 C 118.804688 227.671875 114.195312 228.207031 109.601562 228.769531 C 107.222656 229.0625 105.90625 228.332031 104.785156 226.105469 C 96.597656 209.804688 90.863281 192.636719 86.3125 175.03125 Z M 124.445312 229.015625 C 125.46875 228.953125 126.101562 229.230469 126.171875 230.34375 C 126.253906 231.578125 125.429688 231.738281 124.511719 231.699219 C 119.183594 231.460938 113.851562 231.199219 108.523438 230.949219 C 113.789062 229.421875 119.128906 229.34375 124.445312 229.015625 Z M 124.59375 233.160156 C 125.871094 233.164062 126.640625 233.726562 126.734375 235.09375 C 127.21875 242.246094 127.722656 249.394531 128.203125 256.546875 C 128.214844 256.714844 127.972656 256.902344 127.578125 257.480469 C 119.65625 250.457031 113.703125 242.097656 108.886719 233.15625 C 114.207031 233.15625 119.398438 233.152344 124.59375 233.160156 Z M 129.453125 228.773438 C 132.347656 228.710938 135.246094 228.695312 138.140625 228.679688 C 138.984375 228.675781 139.511719 229.078125 139.46875 229.988281 C 139.425781 230.867188 139.285156 231.734375 138.144531 231.765625 C 136.695312 231.804688 135.246094 231.773438 133.800781 231.773438 C 133.800781 231.761719 133.800781 231.75 133.800781 231.738281 C 132.472656 231.738281 131.144531 231.746094 129.816406 231.734375 C 128.9375 231.726562 128.09375 231.671875 128.054688 230.464844 C 128.027344 229.476562 128.402344 228.796875 129.453125 228.773438 Z M 140.519531 235.574219 C 140.652344 233.992188 141.308594 233.488281 142.769531 233.429688 C 152 233.066406 161.226562 232.660156 171.453125 232.222656 C 162.191406 244.722656 152.339844 255.101562 139.144531 261.867188 C 138.539062 262.175781 137.824219 262.851562 137.222656 262.160156 C 136.933594 261.828125 137.082031 261.019531 137.191406 260.453125 C 138.800781 252.226562 139.839844 243.921875 140.519531 235.574219 Z M 141.253906 230.335938 C 141.324219 228.714844 142.445312 228.722656 143.570312 228.804688 C 148.300781 229.160156 153.027344 229.550781 157.753906 229.921875 C 159.195312 230.03125 160.632812 230.117188 162.074219 230.214844 C 155.835938 231.914062 149.519531 231.699219 143.21875 231.75 C 142.257812 231.757812 141.1875 231.855469 141.253906 230.335938 Z M 170.191406 229.957031 C 161.792969 228.382812 153.269531 227.652344 144.742188 227.421875 C 141.585938 227.335938 141.4375 226.359375 141.648438 223.605469 C 142.671875 210.492188 143.394531 197.351562 144.207031 184.21875 C 144.289062 182.882812 144.242188 181.535156 144.304688 180.199219 C 144.605469 173.828125 144.632812 174.03125 150.804688 173.480469 C 160.027344 172.65625 169.292969 172.667969 178.523438 171.71875 C 183 171.253906 187.679688 172.664062 192.261719 173.277344 C 193.671875 173.464844 193.8125 174.476562 193.75 175.722656 C 193.644531 177.789062 193.722656 179.863281 193.722656 181.9375 C 194.371094 187.605469 192.609375 192.707031 190.371094 197.808594 C 185.773438 208.308594 180.640625 218.5 174.34375 228.09375 C 173.28125 229.710938 172.289062 230.351562 170.191406 229.957031 Z M 191.675781 199.488281 C 192.433594 203.660156 191.027344 207.648438 190.394531 211.640625 C 189.65625 216.269531 188.046875 220.757812 187.140625 225.371094 C 186.632812 227.960938 185.421875 229.113281 182.863281 229.253906 C 180.441406 229.382812 178.027344 229.722656 174.945312 230.035156 C 181.484375 219.960938 186.757812 209.871094 191.675781 199.488281 Z M 188.609375 235.890625 C 190.539062 236.816406 193.746094 236.925781 194.09375 238.722656 C 194.394531 240.269531 191.289062 241.320312 189.617188 242.460938 C 186.765625 244.410156 183.757812 246.136719 180.816406 247.957031 C 180.675781 247.761719 180.539062 247.5625 180.398438 247.363281 C 181.878906 244.046875 183.503906 240.789062 184.789062 237.402344 C 185.609375 235.238281 186.71875 234.980469 188.609375 235.890625 Z M 189.140625 234.492188 C 188.183594 234.039062 186.476562 234.246094 186.78125 232.351562 C 187.058594 230.640625 188.117188 230.136719 189.792969 229.878906 C 196.019531 228.917969 202.210938 227.746094 208.417969 226.65625 C 208.558594 226.832031 208.695312 227.007812 208.832031 227.183594 C 205.050781 230.394531 201.257812 233.589844 197.496094 236.824219 C 196.574219 237.617188 195.785156 237.3125 194.839844 236.886719 C 192.964844 236.035156 191 235.378906 189.140625 234.492188 Z M 188.125 228.378906 C 191.683594 215.84375 193.570312 203.582031 195.039062 191.199219 C 195.636719 186.132812 198.257812 181.3125 199.839844 176.34375 C 200.398438 174.582031 201.644531 174.917969 202.765625 175.140625 C 214.363281 177.441406 225.738281 180.449219 236.496094 185.496094 C 238.433594 186.402344 238.578125 187.371094 237.601562 189.160156 C 230.851562 201.484375 222.636719 212.726562 212.925781 222.886719 C 212.261719 223.582031 211.625 224.222656 210.5625 224.460938 C 203.339844 226.074219 196.109375 227.601562 188.125 228.378906 Z M 232.613281 200.734375 C 234.859375 197.128906 236.964844 193.4375 239.148438 189.792969 C 239.671875 188.917969 239.929688 187.566406 241.503906 188.367188 C 242.695312 188.976562 242.945312 189.96875 242.632812 191.132812 C 240.222656 200.085938 236.953125 208.703125 232.449219 216.828125 C 232.007812 217.625 231.359375 218.144531 230.546875 218.445312 C 225.898438 220.164062 221.242188 221.855469 216.144531 222.589844 C 222.015625 215.507812 227.796875 208.480469 232.613281 200.734375 Z M 242.410156 187.0625 C 241.59375 186.714844 240.960938 186.273438 241.558594 185.160156 C 242.496094 183.40625 243.308594 181.585938 244.578125 178.960938 C 245.144531 182.101562 244.109375 183.996094 243.882812 186 C 243.808594 186.636719 243.402344 187.484375 242.410156 187.0625 Z M 240.265625 183.9375 C 239.625 185.257812 238.75 185.015625 237.601562 184.449219 C 226.820312 179.152344 215.324219 176.09375 203.597656 173.773438 C 202.546875 173.5625 200.925781 173.679688 201.308594 171.730469 C 201.558594 170.449219 201.457031 168.859375 203.21875 168.605469 C 218.097656 166.457031 232.640625 162.941406 246.78125 157.726562 C 248.273438 167.546875 244.253906 175.738281 240.265625 183.9375 Z M 242.363281 157.550781 C 230.652344 161.578125 218.613281 164.222656 206.472656 166.480469 C 202.582031 167.203125 202.523438 167.007812 203.488281 163.179688 C 207.96875 145.410156 210.210938 127.332031 210.796875 109.042969 C 210.875 106.515625 211.085938 105.527344 214.140625 106.160156 C 222.449219 107.875 230.640625 109.925781 238.722656 112.5 C 240.472656 113.054688 241.363281 113.96875 241.796875 115.628906 C 244.78125 127.09375 246.457031 138.75 247.128906 151.324219 C 248.273438 154.765625 245.945312 156.320312 242.363281 157.550781 Z M 257.175781 121.261719 C 264.429688 123.914062 269.226562 130.34375 269.097656 136.738281 C 269.03125 140.074219 267.15625 142.375 265.042969 144.597656 C 261.84375 147.964844 258.011719 150.398438 253.433594 152.625 C 255.542969 141.988281 257.515625 131.800781 257.175781 121.261719 Z M 251.878906 74.710938 C 261.273438 90.929688 266.882812 108.050781 268.148438 126.613281 C 264.957031 123.902344 261.875 121.359375 258.40625 119.359375 C 257.019531 118.5625 257.140625 117.4375 257.160156 116.238281 C 257.375 103.492188 254.980469 91.15625 251.269531 79.03125 C 250.71875 77.226562 250.746094 77.21875 251.878906 74.710938 Z M 255.15625 108.355469 C 255.292969 110.542969 255.453125 112.726562 255.574219 114.453125 C 256.148438 117.347656 255.242188 117.785156 253.21875 116.578125 C 253.113281 116.515625 253.011719 116.4375 252.894531 116.40625 C 244.894531 114.273438 239.96875 109.503906 238.617188 101.003906 C 238.097656 97.730469 236.367188 94.601562 234.890625 91.546875 C 233.890625 89.472656 233.996094 88.421875 236.308594 87.460938 C 240.355469 85.777344 244.105469 83.476562 247.359375 80.507812 C 248.960938 79.046875 249.507812 79.164062 250.15625 81.335938 C 252.800781 90.171875 254.578125 99.148438 255.15625 108.355469 Z M 250.121094 68.761719 C 248.476562 66.378906 246.832031 63.996094 245.1875 61.613281 C 248.21875 63.042969 249.839844 65.453125 250.121094 68.761719 Z M 237.21875 48.570312 C 239.332031 51.214844 241.449219 53.863281 243.5625 56.511719 C 239.425781 55.464844 239.015625 51.46875 236.175781 49.394531 C 236.523438 49.121094 236.871094 48.84375 237.21875 48.570312 Z M 241.300781 60.085938 C 243.6875 64.855469 245.988281 69.648438 247.925781 74.628906 C 248.621094 76.414062 248.425781 77.546875 247.085938 78.792969 C 243.472656 82.160156 239.210938 84.46875 234.8125 86.597656 C 232.652344 87.648438 232.355469 85.863281 231.761719 84.65625 C 226.757812 74.464844 220.804688 64.863281 213.808594 55.917969 C 211.195312 52.578125 208.421875 49.367188 205.148438 45.40625 C 216.335938 47.792969 226.359375 50.5625 235.890625 54.972656 C 238.320312 56.097656 240.089844 57.664062 241.300781 60.085938 Z M 232.675781 49.324219 C 233.578125 50.253906 234.410156 51.253906 235.273438 52.21875 C 226.191406 49.09375 217.199219 46.167969 207.929688 44.515625 C 202.367188 43.527344 199.464844 40.464844 197.453125 35.691406 C 196.789062 34.121094 196.898438 33.257812 198.398438 32.460938 C 199.355469 31.949219 200.546875 31.402344 201.019531 30.535156 C 203.800781 25.464844 206.667969 28.164062 209.703125 30.191406 C 218.039062 35.761719 225.710938 42.117188 232.675781 49.324219 Z M 204.566406 21.683594 C 210.867188 24.046875 225.660156 36.800781 229.425781 43.21875 C 228.21875 43.195312 227.71875 42.324219 227.09375 41.765625 C 220.820312 36.171875 214.195312 31.039062 206.972656 26.730469 C 204.882812 25.484375 204.0625 24 204.566406 21.683594 Z M 202.832031 23.535156 C 195.101562 18.859375 185.589844 17.539062 179.023438 10.71875 C 187.839844 13.394531 197.507812 14.46875 202.832031 23.535156 Z M 177.089844 12.28125 C 171.0625 10.902344 165.195312 9.195312 159.265625 7.722656 C 165.449219 8.355469 172.015625 7.40625 177.089844 12.28125 Z M 181.402344 16.125 C 186.175781 18.289062 188.609375 23.585938 191.445312 27.980469 C 192.441406 29.527344 194.800781 31.867188 193.660156 32.816406 C 191.730469 34.414062 190.191406 31.515625 188.703125 30.355469 C 177.359375 21.519531 165.085938 14.410156 151.425781 9.78125 C 150.53125 9.480469 149.667969 9.09375 148.789062 8.746094 C 160.132812 9.457031 171.179688 11.492188 181.402344 16.125 Z M 191.148438 34.363281 C 182.808594 36.933594 175.371094 40.160156 166.960938 38.574219 C 165.566406 38.3125 164.765625 37.652344 164.164062 36.574219 C 158.59375 26.640625 152.035156 17.503906 143.101562 10.253906 C 142.886719 10.082031 142.929688 9.597656 142.746094 8.785156 C 160.886719 13.425781 176.441406 22.191406 191.148438 34.363281 Z M 137.152344 8.507812 C 139.050781 8.808594 141.261719 10.039062 141.5 12.734375 C 141.945312 17.804688 142.480469 22.863281 142.957031 27.929688 C 143.082031 29.257812 143.074219 30.601562 143.21875 31.925781 C 143.851562 37.660156 143.863281 37.65625 138.289062 37.570312 C 132.257812 37.476562 132.253906 37.476562 133.035156 31.488281 C 133.886719 25 134.628906 18.5 135.683594 12.050781 C 135.882812 10.839844 135.535156 8.246094 137.152344 8.507812 Z M 131.167969 35.242188 C 131.023438 37.492188 129.652344 37.664062 127.914062 37.625 C 118.886719 37.417969 109.902344 38.234375 100.136719 38.882812 C 109.449219 25.796875 120.039062 15.027344 134.894531 7.777344 C 133.117188 17.425781 131.742188 26.285156 131.167969 35.242188 Z M 128.363281 9.054688 C 124.582031 11.910156 121.035156 14.414062 117.6875 17.15625 C 111.03125 22.601562 105.300781 28.960938 100.382812 35.976562 C 98.640625 38.460938 96.871094 38.765625 94.226562 38.089844 C 87.21875 36.308594 87.363281 36.445312 90.0625 29.738281 C 92.695312 23.191406 96.898438 18.78125 103.742188 16.324219 C 111.257812 13.625 118.761719 10.972656 126.488281 8.964844 C 126.929688 8.851562 127.4375 9.003906 128.363281 9.054688 Z M 107.152344 9.566406 C 111.351562 9.15625 115.46875 7.910156 119.753906 8.4375 C 113.347656 11.0625 106.644531 12.636719 100.714844 16.167969 C 100.300781 16.414062 99.375 16.363281 99.042969 16.0625 C 98.496094 15.566406 99.085938 14.96875 99.464844 14.535156 C 101.550781 12.160156 103.625 9.914062 107.152344 9.566406 Z M 100.175781 9.21875 C 90.78125 11.894531 81.617188 15.210938 72.628906 18.972656 C 80.820312 12.804688 90.3125 10.46875 100.175781 9.21875 Z M 71.875 21.554688 C 80.398438 17.417969 89.144531 13.960938 98.570312 12 C 96.375 15.703125 94.351562 19.269531 90.234375 21.289062 C 85.570312 23.574219 81.261719 26.574219 77.085938 29.710938 C 74.71875 31.488281 72.09375 30.398438 69.894531 26.894531 C 68.207031 24.207031 69.324219 22.792969 71.875 21.554688 Z M 67.132812 24.355469 C 67.949219 27.109375 69.496094 29.394531 71.859375 31.035156 C 73.011719 31.835938 73.277344 32.386719 72.027344 33.457031 C 67.699219 37.175781 63.5 41.050781 59.183594 44.789062 C 57.464844 46.277344 55.105469 46.203125 53.050781 46.882812 C 49.414062 48.085938 45.722656 49.125 41.1875 50.492188 C 48.242188 39.410156 55.214844 29.59375 67.132812 24.355469 Z M 47.054688 38.542969 C 42.101562 44.445312 40.410156 53.53125 30.195312 55.140625 C 35.460938 48.609375 40.847656 43.164062 47.054688 38.542969 Z M 25.875 61.007812 C 28.875 58.183594 32.453125 56.109375 37.203125 54.34375 C 33.058594 62.558594 30.007812 70.214844 27.871094 78.203125 C 27.261719 80.480469 26.472656 79.914062 25.199219 78.839844 C 19.15625 73.734375 19.296875 67.1875 25.875 61.007812 Z M 18.820312 71.625 C 20.453125 75.976562 22.863281 79.042969 26.023438 81.53125 C 27.089844 82.371094 26.453125 83.628906 26.277344 84.636719 C 24.574219 94.402344 22.914062 104.179688 19.5 113.542969 C 19.015625 114.867188 18.566406 116.074219 17.035156 116.851562 C 11.84375 119.488281 6.933594 122.585938 2.613281 128.074219 C 3.804688 107.609375 8.863281 89.363281 18.820312 71.625 Z M 2.792969 133.160156 C 4.265625 125.078125 11.488281 122.222656 18.03125 118.109375 C 17.046875 123.910156 16.011719 128.972656 15.378906 134.082031 C 14.757812 139.109375 14.546875 144.191406 14.097656 149.976562 C 7.476562 145.710938 1.246094 141.652344 2.792969 133.160156 Z M 20.023438 195.105469 C 18.832031 195.644531 18.699219 194.296875 18.355469 193.667969 C 9.816406 178.128906 4.523438 161.601562 2.980469 142.863281 C 6.203125 146.605469 9.171875 149.089844 12.550781 151.035156 C 13.921875 151.824219 14.242188 153 14.265625 154.398438 C 14.492188 167.417969 16.601562 180.132812 20.503906 192.554688 C 20.804688 193.507812 21.136719 194.601562 20.023438 195.105469 Z M 21.597656 189.691406 C 18.980469 180.988281 17.046875 172.171875 16.65625 163.085938 C 16.519531 159.9375 15.324219 156.859375 16.101562 153.433594 C 20.164062 155.132812 23.933594 156.75 27.738281 158.277344 C 29.015625 158.789062 29.621094 159.703125 29.980469 160.929688 C 31.847656 167.347656 34.148438 173.617188 36.90625 179.699219 C 37.765625 181.597656 37.453125 182.484375 35.597656 183.285156 C 31.441406 185.074219 27.550781 187.335938 24.171875 190.382812 C 22.902344 191.53125 22.273438 191.933594 21.597656 189.691406 Z M 31.054688 211.933594 C 28.0625 206.816406 25.839844 201.347656 23.628906 195.867188 C 23.019531 194.355469 23.320312 193.328125 24.382812 192.285156 C 28 188.726562 32.390625 186.390625 36.929688 184.257812 C 39.175781 183.203125 39.355469 185.183594 39.925781 186.332031 C 45.300781 197.15625 51.683594 207.339844 59.265625 216.757812 C 61.382812 219.394531 63.585938 221.960938 66.476562 225.429688 C 54.429688 222.882812 43.722656 219.910156 33.667969 214.847656 C 32.351562 214.183594 31.71875 213.066406 31.054688 211.933594 Z M 36.769531 218.578125 C 44.027344 220.992188 51.199219 223.527344 58.632812 225.214844 C 60.289062 225.589844 61.921875 226.203125 63.597656 226.339844 C 69.386719 226.8125 72.324219 230.433594 74.28125 235.402344 C 74.777344 236.648438 74.902344 237.785156 73.636719 238.082031 C 70.378906 238.847656 69.339844 244.851562 65.816406 242.875 C 54.71875 236.667969 45.128906 228.398438 36.769531 218.578125 Z M 67.015625 249.535156 C 56.929688 243.585938 48.667969 235.972656 41.214844 226.964844 C 42.515625 226.71875 42.929688 227.597656 43.457031 228.078125 C 50.003906 234.097656 57.007812 239.523438 64.632812 244.109375 C 66.6875 245.347656 67.445312 246.878906 67.015625 249.535156 Z M 68.609375 246.253906 C 76.484375 252.078125 85.945312 253.238281 92.851562 259.71875 C 85.503906 260.503906 70.160156 252.429688 68.609375 246.253906 Z M 93.484375 258.046875 C 99.957031 259.734375 105.625 261.214844 111.296875 262.691406 C 105.316406 262.433594 99.054688 263.285156 93.484375 258.046875 Z M 95.6875 256.972656 C 86.089844 254.433594 82.675781 246.269531 77.960938 239.167969 C 77.683594 238.746094 77.496094 238.265625 77.863281 237.835938 C 78.339844 237.285156 78.941406 237.359375 79.511719 237.703125 C 79.824219 237.890625 80.117188 238.113281 80.398438 238.347656 C 92.832031 248.773438 106.707031 256.664062 122.050781 262.183594 C 112.996094 261.683594 104.378906 259.269531 95.6875 256.972656 Z M 118.242188 258.777344 C 105.296875 254.066406 93.644531 247.097656 82.910156 238.511719 C 80.773438 236.800781 81.121094 236.039062 83.460938 235.398438 C 90.234375 233.542969 96.890625 230.957031 104.160156 232.203125 C 105.261719 232.394531 106.328125 232.34375 106.957031 233.492188 C 112.613281 243.828125 119.703125 253.035156 128.554688 260.851562 C 128.691406 260.972656 128.640625 261.300781 128.707031 261.75 C 124.964844 261.480469 121.621094 260.003906 118.242188 258.777344 Z M 134.398438 262.246094 C 132.722656 262.050781 130.691406 261.023438 130.363281 259.113281 C 129.003906 251.195312 128.699219 243.160156 128.09375 235.160156 C 127.980469 233.664062 128.84375 233.300781 130.144531 233.359375 C 131.363281 233.410156 132.582031 233.371094 133.800781 233.371094 C 139.113281 233.667969 139.117188 233.667969 138.625 239.210938 C 138.019531 245.988281 137.210938 252.738281 135.777344 259.390625 C 135.550781 260.4375 136.097656 262.445312 134.398438 262.246094 Z M 137.085938 268.972656 C 136.429688 268.980469 135.203125 269.53125 135.308594 268.007812 C 135.398438 266.761719 136.152344 266.367188 137.308594 266.585938 C 138.59375 266.824219 139.835938 267.175781 141.25 268.273438 C 139.699219 269.246094 138.351562 268.953125 137.085938 268.972656 Z M 172.398438 233.492188 C 173.480469 231.992188 174.652344 231.425781 176.320312 232.5625 C 176.609375 232.757812 177.011719 232.792969 177.363281 232.878906 C 184.410156 234.546875 184.265625 234.484375 181.574219 241.03125 C 179.023438 247.242188 175.285156 251.832031 168.644531 254.238281 C 160.585938 257.15625 152.679688 260.414062 144.078125 261.445312 C 155.460938 253.910156 164.550781 244.332031 172.398438 233.492188 Z M 149.828125 262.992188 C 157.644531 260.335938 165.421875 257.582031 173.050781 254.414062 C 167.6875 264.039062 157.992188 261.324219 149.828125 262.992188 Z M 172.449219 261.410156 C 181.222656 258.738281 189.859375 255.671875 198.367188 252.242188 C 190.679688 258.007812 181.761719 260.269531 172.449219 261.410156 Z M 200.042969 249.175781 C 191.203125 253.488281 182.109375 257.0625 172.199219 259.460938 C 175.4375 254 179.410156 250.191406 184.703125 247.550781 C 188.253906 245.78125 191.398438 243.195312 194.714844 240.964844 C 196.988281 239.433594 199.808594 240.683594 201.789062 244.042969 C 203.222656 246.476562 202.589844 247.929688 200.042969 249.175781 Z M 212.5 241.863281 C 211.390625 242.609375 210.199219 243.25 209.132812 244.050781 C 206.429688 246.09375 204.21875 247.027344 202.5 242.78125 C 201.835938 241.140625 199.863281 240.027344 198.582031 238.765625 C 207.023438 229.390625 216.65625 222.234375 229.445312 221.109375 C 227.957031 225.886719 218.09375 238.105469 212.5 241.863281 Z M 224.375 232.339844 C 229.503906 226.453125 231.292969 217.308594 240.644531 215.792969 C 239.453125 218.960938 230.097656 228.808594 224.375 232.339844 Z M 249.050781 205.515625 C 245.847656 210.976562 240.742188 213.710938 235.152344 215.992188 C 238.648438 208.167969 241.71875 200.382812 243.878906 192.265625 C 244.277344 190.769531 244.785156 190.886719 245.851562 191.5625 C 250.816406 194.714844 252.003906 200.480469 249.050781 205.515625 Z M 246.304688 189.957031 C 245.1875 189.074219 245.042969 188.238281 245.261719 186.851562 C 246.863281 176.691406 248.902344 166.644531 252.234375 156.890625 C 252.613281 155.78125 253.003906 154.746094 254.292969 154.132812 C 259.691406 151.566406 264.558594 148.21875 269.15625 142.75 C 267.710938 163.363281 262.734375 181.734375 252.667969 199.515625 C 251.398438 195.070312 249.1875 192.242188 246.304688 189.957031 Z M 246.304688 189.957031 " fill-opacity="1" fill-rule="nonzero"/></g></g></g></g><g fill="#ffffff" fill-opacity="1"><g transform="translate(61.934084, 287.589106)"><g><path d="M 102.425781 -84.46875 L 99.515625 -83.710938 L 69.800781 -83.710938 L 77.515625 -88.136719 C 74.605469 -93.574219 68.03125 -102.296875 63.351562 -108.621094 L 49.820312 -101.414062 C 53.488281 -96.101562 58.167969 -89.148438 61.203125 -83.710938 L 11.886719 -83.710938 L 11.886719 -68.914062 L 88.136719 -68.914062 C 74.605469 -51.71875 52.984375 -32.246094 32.246094 -19.851562 L 31.484375 -19.851562 C 24.53125 -19.851562 14.542969 -13.152344 5.4375 -3.414062 L 16.3125 10.75 C 21.496094 2.65625 27.1875 -5.816406 31.105469 -5.816406 C 33.886719 -5.816406 38.0625 -1.515625 43.5 1.644531 C 52.097656 6.953125 62.214844 8.597656 77.765625 8.597656 C 90.160156 8.597656 109.253906 7.839844 118.230469 7.207031 C 118.484375 3.160156 121.011719 -4.679688 122.53125 -8.851562 C 110.515625 -7.082031 91.171875 -5.816406 78.273438 -5.816406 C 64.996094 -5.816406 54.375 -6.703125 46.535156 -11.507812 C 71.949219 -28.199219 98.125 -53.109375 114.058594 -76.753906 Z M 102.425781 -84.46875 "/></g></g></g><g fill="#ffffff" fill-opacity="1"><g transform="translate(181.297819, 287.589106)"><g><path d="M 120 -100.273438 L 88.386719 -100.273438 L 88.386719 -87.125 L 120 -87.125 Z M 54.878906 -68.410156 L 38.1875 -68.410156 L 38.1875 -55.386719 L 85.355469 -55.386719 L 85.355469 -68.410156 L 69.167969 -68.410156 L 69.167969 -80.675781 L 83.457031 -80.675781 L 83.457031 -93.195312 L 69.167969 -93.195312 L 69.167969 -107.101562 L 54.878906 -107.101562 L 54.878906 -93.195312 L 40.589844 -93.195312 L 40.589844 -80.675781 L 54.878906 -80.675781 Z M 24.53125 -106.976562 C 20.230469 -99.011719 11.378906 -88.894531 3.289062 -82.824219 C 5.5625 -80.167969 9.355469 -74.605469 11.128906 -71.570312 C 20.863281 -79.15625 31.359375 -91.042969 38.0625 -102.046875 Z M 27.441406 -80.421875 C 21.621094 -67.398438 11.761719 -54.246094 1.769531 -46.027344 C 4.425781 -42.867188 8.597656 -35.28125 9.988281 -32.246094 C 12.519531 -34.519531 15.046875 -37.175781 17.703125 -40.210938 L 17.703125 11 L 31.484375 11 L 31.484375 -58.546875 C 35.152344 -64.238281 38.1875 -70.179688 40.84375 -75.871094 Z M 122.023438 -66.511719 L 87.503906 -66.511719 L 87.503906 -53.109375 L 97.746094 -53.109375 L 97.746094 -5.941406 C 97.746094 -4.425781 97.238281 -4.046875 95.597656 -4.046875 C 94.207031 -3.921875 90.917969 -4.046875 86.996094 -4.046875 L 86.617188 -16.058594 C 80.675781 -15.425781 74.730469 -14.792969 68.914062 -14.164062 L 68.914062 -27.820312 L 84.46875 -27.820312 L 84.46875 -40.71875 L 68.914062 -40.71875 L 68.914062 -53.234375 L 54.753906 -53.234375 L 54.753906 -40.71875 L 39.074219 -40.71875 L 39.074219 -27.820312 L 54.753906 -27.820312 L 54.753906 -12.769531 C 47.671875 -12.140625 41.097656 -11.507812 35.660156 -11.128906 L 37.175781 2.65625 C 50.074219 1.265625 67.398438 -0.632812 83.960938 -2.65625 C 85.605469 1.644531 86.996094 7.082031 87.503906 10.875 C 96.101562 10.875 102.425781 10.621094 106.851562 8.21875 C 111.527344 5.691406 112.539062 1.644531 112.539062 -5.691406 L 112.539062 -53.109375 L 122.023438 -53.109375 Z M 122.023438 -66.511719 "/></g></g></g><path stroke-linecap="butt" transform="matrix(0.75, 0, 0, 0.75, -57.046377, 154.089115)" fill="none" stroke-linejoin="miter" d="M 295.218105 65.381185 L 291.348313 66.370768 L 251.707685 66.370768 L 261.999353 60.480143 C 258.129561 53.235351 249.363935 41.589516 243.103518 33.193683 L 225.077475 42.782225 C 229.973309 49.86035 236.192059 59.125976 240.22331 66.370768 L 174.48893 66.370768 L 174.48893 86.125978 L 276.160812 86.125978 C 258.129561 109.053063 229.275392 135.027023 201.613932 151.532232 L 200.624349 151.532232 C 191.363931 151.532232 178.025389 160.464524 165.884763 173.433275 L 180.374347 192.323901 C 187.291014 181.537442 194.905598 170.2614 200.129557 170.2614 C 203.83789 170.2614 209.395182 175.985359 216.639975 180.183276 C 228.12435 187.261401 241.582685 189.48536 262.327478 189.48536 C 278.832687 189.48536 304.311855 188.454109 316.291023 187.589526 C 316.619148 182.198901 319.994148 171.745775 322.014982 166.188483 C 305.999355 168.5739 280.192062 170.2614 262.988936 170.2614 C 245.28581 170.2614 231.129559 169.068692 220.671225 162.646816 C 254.587894 140.417648 289.452479 107.198896 310.733731 75.672852 Z M 477.791033 44.303058 L 435.639989 44.303058 L 435.639989 61.839518 L 477.791033 61.839518 Z M 390.978528 86.782228 L 368.707693 86.782228 L 368.707693 104.157229 L 431.60353 104.157229 L 431.60353 86.782228 L 410.035821 86.782228 L 410.035821 70.443685 L 429.051447 70.443685 L 429.051447 53.730142 L 410.035821 53.730142 L 410.035821 35.209308 L 390.978528 35.209308 L 390.978528 53.730142 L 371.921235 53.730142 L 371.921235 70.443685 L 390.978528 70.443685 Z M 350.514983 35.370766 C 344.754566 45.990558 332.978524 59.495768 322.155607 67.563477 C 325.202482 71.099935 330.264982 78.511394 332.608732 82.584311 C 345.61915 72.45931 359.613942 56.610351 368.546235 41.959308 Z M 354.384775 70.77181 C 346.603525 88.141603 333.473316 105.678062 320.139981 116.62598 C 323.67644 120.823897 329.275399 130.954106 331.129565 135.027023 C 334.504566 131.980147 337.837899 128.438481 341.379566 124.365564 L 341.379566 192.652026 L 359.775401 192.652026 L 359.775401 99.954104 C 364.676443 92.33952 368.707693 84.438478 372.24936 76.823894 Z M 480.504575 89.334311 L 434.447281 89.334311 L 434.447281 107.198896 L 448.113948 107.198896 L 448.113948 170.058275 C 448.113948 172.115567 447.45249 172.610358 445.270198 172.610358 C 443.42124 172.771817 439.014989 172.610358 433.785822 172.610358 L 433.291031 156.594732 C 425.348322 157.417649 417.447279 158.282232 409.666029 159.105149 L 409.666029 140.91244 L 430.410822 140.91244 L 430.410822 123.709314 L 409.666029 123.709314 L 409.666029 107.037437 L 390.811861 107.037437 L 390.811861 123.709314 L 369.90561 123.709314 L 369.90561 140.91244 L 390.811861 140.91244 L 390.811861 160.959316 C 381.348319 161.823899 372.577485 162.646816 365.332693 163.183274 L 367.353526 181.537442 C 384.556652 179.688484 407.650404 177.178067 429.754572 174.459317 C 431.936864 180.183276 433.785822 187.428068 434.447281 192.490568 C 445.931656 192.490568 454.369157 192.157235 460.254574 188.948901 C 466.509783 185.573901 467.827491 180.183276 467.827491 170.428067 L 467.827491 107.198896 L 480.504575 107.198896 Z M 480.504575 89.334311 " stroke="#55a630" stroke-width="4.004416" stroke-opacity="1" stroke-miterlimit="4"/><g fill="#55a630" fill-opacity="1"><g transform="translate(74.56827, 169.825762)"><g><path d="M 23.242188 -34.003906 C 29.914062 -42.613281 36.480469 -52.730469 41.539062 -62.519531 L 31.207031 -68.761719 C 29.59375 -65.210938 27.761719 -61.445312 25.71875 -58 L 17.972656 -57.355469 C 23.457031 -65.855469 28.839844 -76.1875 32.175781 -85.65625 L 20.015625 -91.359375 C 16.894531 -79.199219 10.546875 -66.074219 8.5 -62.738281 C 6.5625 -59.292969 4.734375 -57.140625 2.582031 -56.496094 C 4.089844 -53.050781 6.242188 -47.027344 6.886719 -44.550781 C 8.394531 -45.304688 10.761719 -45.949219 19.15625 -47.027344 C 16.035156 -41.96875 13.128906 -38.09375 11.621094 -36.371094 C 8.5 -32.5 6.242188 -30.023438 3.660156 -29.484375 C 5.058594 -26.363281 6.886719 -20.660156 7.53125 -18.292969 C 10.117188 -19.90625 14.417969 -21.199219 38.523438 -25.828125 C 38.417969 -28.300781 38.523438 -33.25 38.953125 -36.585938 Z M 6.886719 4.628906 C 16.464844 1.074219 28.515625 -3.445312 39.816406 -7.855469 L 37.664062 -18.292969 C 25.179688 -14.203125 12.375 -9.898438 3.980469 -7.53125 Z M 93.40625 -40.675781 C 90.285156 -37.125 85.441406 -32.605469 80.816406 -28.730469 C 80.0625 -29.914062 79.417969 -31.097656 78.769531 -32.28125 L 78.769531 -43.691406 L 104.167969 -43.691406 L 104.167969 -54.773438 L 96.097656 -54.773438 C 96.847656 -65.105469 97.386719 -77.480469 97.601562 -87.917969 L 88.5625 -88.457031 L 87.054688 -88.023438 L 47.242188 -88.023438 L 47.242188 -77.265625 L 85.121094 -77.265625 L 84.902344 -70.914062 L 49.070312 -70.914062 L 49.070312 -61.335938 L 84.367188 -61.335938 C 84.257812 -59.078125 84.042969 -56.925781 83.9375 -54.773438 L 44.121094 -54.773438 L 44.121094 -43.691406 L 66.933594 -43.691406 L 66.933594 -26.902344 C 56.816406 -20.445312 46.378906 -13.882812 39.601562 -10.007812 L 46.273438 -0.214844 C 52.515625 -4.519531 59.832031 -9.792969 66.933594 -15.171875 L 66.933594 -3.226562 C 66.933594 -2.042969 66.503906 -1.722656 65.320312 -1.722656 C 64.027344 -1.722656 60.152344 -1.613281 56.386719 -1.828125 C 57.894531 1.292969 59.507812 5.917969 59.9375 9.148438 C 66.289062 9.148438 70.914062 8.929688 74.25 7.210938 C 77.800781 5.378906 78.769531 2.476562 78.769531 -3.011719 L 78.769531 -15.171875 C 84.042969 -8.179688 90.609375 -2.582031 98.140625 0.96875 C 99.863281 -2.042969 103.199219 -6.5625 105.886719 -8.714844 C 98.355469 -11.40625 91.574219 -16.035156 86.410156 -21.523438 C 91.898438 -25.394531 98.246094 -30.023438 103.628906 -34.652344 Z M 64.136719 -29.164062 C 61.769531 -32.714844 56.496094 -37.769531 52.191406 -41 L 43.90625 -34.867188 C 48.210938 -31.207031 53.265625 -25.933594 55.417969 -22.382812 Z M 64.136719 -29.164062 "/></g></g></g><g fill="#55a630" fill-opacity="1"><g transform="translate(192.823289, 169.825762)"><g><path d="M 60.800781 -71.453125 C 58 -67.792969 54.882812 -64.242188 51.761719 -61.335938 L 27.65625 -61.335938 C 30.882812 -64.566406 33.789062 -67.902344 36.695312 -71.453125 Z M 80.707031 -36.695312 L 61.121094 -36.695312 L 61.121094 -49.5 L 80.707031 -49.5 Z M 28.625 -49.5 L 48.640625 -49.5 L 48.640625 -36.695312 L 28.625 -36.695312 Z M 42.183594 -4.195312 C 30.453125 -4.195312 28.625 -5.273438 28.625 -11.835938 L 28.625 -24.535156 L 80.707031 -24.535156 L 80.707031 -20.875 L 93.296875 -20.875 L 93.296875 -61.335938 L 67.042969 -61.335938 C 71.992188 -66.394531 76.617188 -72.207031 80.277344 -77.371094 L 72.097656 -83.503906 L 69.625 -82.859375 L 44.875 -82.859375 C 45.734375 -84.367188 46.703125 -85.980469 47.5625 -87.488281 L 35.941406 -91.898438 C 28.730469 -78.554688 15.710938 -66.179688 3.011719 -58.539062 C 5.273438 -55.632812 8.714844 -49.285156 9.898438 -46.273438 C 11.945312 -47.777344 14.097656 -49.285156 16.25 -51.007812 L 16.25 -11.835938 C 16.25 3.550781 22.382812 7.425781 42.398438 7.425781 L 79.199219 7.425781 C 97.28125 7.425781 101.691406 2.261719 103.953125 -15.386719 C 100.398438 -16.035156 95.128906 -18.078125 91.898438 -19.90625 C 90.5 -6.5625 88.886719 -4.195312 78.554688 -4.195312 Z M 42.183594 -4.195312 "/></g></g></g></svg>