<svg xmlns="http://www.w3.org/2000/svg" xmlns:xlink="http://www.w3.org/1999/xlink" width="500" zoomAndPan="magnify" viewBox="0 0 375 374.999991" height="500" preserveAspectRatio="xMidYMid meet" version="1.0"><defs><g/></defs><g fill="#55a630" fill-opacity="1"><g transform="translate(88.814384, 176.510964)"><g><path d="M 23.242188 -34.003906 C 29.914062 -42.613281 36.480469 -52.730469 41.539062 -62.519531 L 31.207031 -68.761719 C 29.59375 -65.210938 27.761719 -61.445312 25.71875 -58 L 17.972656 -57.355469 C 23.457031 -65.855469 28.839844 -76.1875 32.175781 -85.65625 L 20.015625 -91.359375 C 16.894531 -79.199219 10.546875 -66.074219 8.5 -62.738281 C 6.5625 -59.292969 4.734375 -57.140625 2.582031 -56.496094 C 4.089844 -53.050781 6.242188 -47.027344 6.886719 -44.550781 C 8.394531 -45.304688 10.761719 -45.949219 19.15625 -47.027344 C 16.035156 -41.96875 13.128906 -38.09375 11.621094 -36.371094 C 8.5 -32.5 6.242188 -30.023438 3.660156 -29.484375 C 5.058594 -26.363281 6.886719 -20.660156 7.53125 -18.292969 C 10.117188 -19.90625 14.417969 -21.199219 38.523438 -25.828125 C 38.417969 -28.300781 38.523438 -33.25 38.953125 -36.585938 Z M 6.886719 4.628906 C 16.464844 1.074219 28.515625 -3.445312 39.816406 -7.855469 L 37.664062 -18.292969 C 25.179688 -14.203125 12.375 -9.898438 3.980469 -7.53125 Z M 93.40625 -40.675781 C 90.285156 -37.125 85.441406 -32.605469 80.816406 -28.730469 C 80.0625 -29.914062 79.417969 -31.097656 78.769531 -32.28125 L 78.769531 -43.691406 L 104.167969 -43.691406 L 104.167969 -54.773438 L 96.097656 -54.773438 C 96.847656 -65.105469 97.386719 -77.480469 97.601562 -87.917969 L 88.5625 -88.457031 L 87.054688 -88.023438 L 47.242188 -88.023438 L 47.242188 -77.265625 L 85.121094 -77.265625 L 84.902344 -70.914062 L 49.070312 -70.914062 L 49.070312 -61.335938 L 84.367188 -61.335938 C 84.257812 -59.078125 84.042969 -56.925781 83.9375 -54.773438 L 44.121094 -54.773438 L 44.121094 -43.691406 L 66.933594 -43.691406 L 66.933594 -26.902344 C 56.816406 -20.445312 46.378906 -13.882812 39.601562 -10.007812 L 46.273438 -0.214844 C 52.515625 -4.519531 59.832031 -9.792969 66.933594 -15.171875 L 66.933594 -3.226562 C 66.933594 -2.042969 66.503906 -1.722656 65.320312 -1.722656 C 64.027344 -1.722656 60.152344 -1.613281 56.386719 -1.828125 C 57.894531 1.292969 59.507812 5.917969 59.9375 9.148438 C 66.289062 9.148438 70.914062 8.929688 74.25 7.210938 C 77.800781 5.378906 78.769531 2.476562 78.769531 -3.011719 L 78.769531 -15.171875 C 84.042969 -8.179688 90.609375 -2.582031 98.140625 0.96875 C 99.863281 -2.042969 103.199219 -6.5625 105.886719 -8.714844 C 98.355469 -11.40625 91.574219 -16.035156 86.410156 -21.523438 C 91.898438 -25.394531 98.246094 -30.023438 103.628906 -34.652344 Z M 64.136719 -29.164062 C 61.769531 -32.714844 56.496094 -37.769531 52.191406 -41 L 43.90625 -34.867188 C 48.210938 -31.207031 53.265625 -25.933594 55.417969 -22.382812 Z M 64.136719 -29.164062 "/></g></g></g><g fill="#55a630" fill-opacity="1"><g transform="translate(191.573567, 176.510964)"><g><path d="M 60.800781 -71.453125 C 58 -67.792969 54.882812 -64.242188 51.761719 -61.335938 L 27.65625 -61.335938 C 30.882812 -64.566406 33.789062 -67.902344 36.695312 -71.453125 Z M 80.707031 -36.695312 L 61.121094 -36.695312 L 61.121094 -49.5 L 80.707031 -49.5 Z M 28.625 -49.5 L 48.640625 -49.5 L 48.640625 -36.695312 L 28.625 -36.695312 Z M 42.183594 -4.195312 C 30.453125 -4.195312 28.625 -5.273438 28.625 -11.835938 L 28.625 -24.535156 L 80.707031 -24.535156 L 80.707031 -20.875 L 93.296875 -20.875 L 93.296875 -61.335938 L 67.042969 -61.335938 C 71.992188 -66.394531 76.617188 -72.207031 80.277344 -77.371094 L 72.097656 -83.503906 L 69.625 -82.859375 L 44.875 -82.859375 C 45.734375 -84.367188 46.703125 -85.980469 47.5625 -87.488281 L 35.941406 -91.898438 C 28.730469 -78.554688 15.710938 -66.179688 3.011719 -58.539062 C 5.273438 -55.632812 8.714844 -49.285156 9.898438 -46.273438 C 11.945312 -47.777344 14.097656 -49.285156 16.25 -51.007812 L 16.25 -11.835938 C 16.25 3.550781 22.382812 7.425781 42.398438 7.425781 L 79.199219 7.425781 C 97.28125 7.425781 101.691406 2.261719 103.953125 -15.386719 C 100.398438 -16.035156 95.128906 -18.078125 91.898438 -19.90625 C 90.5 -6.5625 88.886719 -4.195312 78.554688 -4.195312 Z M 42.183594 -4.195312 "/></g></g></g><g fill="#ffffff" fill-opacity="1"><g transform="translate(61.934084, 287.589123)"><g><path d="M 102.425781 -84.46875 L 99.515625 -83.710938 L 69.800781 -83.710938 L 77.515625 -88.136719 C 74.605469 -93.574219 68.03125 -102.296875 63.351562 -108.621094 L 49.820312 -101.414062 C 53.488281 -96.101562 58.167969 -89.148438 61.203125 -83.710938 L 11.886719 -83.710938 L 11.886719 -68.914062 L 88.136719 -68.914062 C 74.605469 -51.71875 52.984375 -32.246094 32.246094 -19.851562 L 31.484375 -19.851562 C 24.53125 -19.851562 14.542969 -13.152344 5.4375 -3.414062 L 16.3125 10.75 C 21.496094 2.65625 27.1875 -5.816406 31.105469 -5.816406 C 33.886719 -5.816406 38.0625 -1.515625 43.5 1.644531 C 52.097656 6.953125 62.214844 8.597656 77.765625 8.597656 C 90.160156 8.597656 109.253906 7.839844 118.230469 7.207031 C 118.484375 3.160156 121.011719 -4.679688 122.53125 -8.851562 C 110.515625 -7.082031 91.171875 -5.816406 78.273438 -5.816406 C 64.996094 -5.816406 54.375 -6.703125 46.535156 -11.507812 C 71.949219 -28.199219 98.125 -53.109375 114.058594 -76.753906 Z M 102.425781 -84.46875 "/></g></g></g><g fill="#ffffff" fill-opacity="1"><g transform="translate(181.297819, 287.589123)"><g><path d="M 120 -100.273438 L 88.386719 -100.273438 L 88.386719 -87.125 L 120 -87.125 Z M 54.878906 -68.410156 L 38.1875 -68.410156 L 38.1875 -55.386719 L 85.355469 -55.386719 L 85.355469 -68.410156 L 69.167969 -68.410156 L 69.167969 -80.675781 L 83.457031 -80.675781 L 83.457031 -93.195312 L 69.167969 -93.195312 L 69.167969 -107.101562 L 54.878906 -107.101562 L 54.878906 -93.195312 L 40.589844 -93.195312 L 40.589844 -80.675781 L 54.878906 -80.675781 Z M 24.53125 -106.976562 C 20.230469 -99.011719 11.378906 -88.894531 3.289062 -82.824219 C 5.5625 -80.167969 9.355469 -74.605469 11.128906 -71.570312 C 20.863281 -79.15625 31.359375 -91.042969 38.0625 -102.046875 Z M 27.441406 -80.421875 C 21.621094 -67.398438 11.761719 -54.246094 1.769531 -46.027344 C 4.425781 -42.867188 8.597656 -35.28125 9.988281 -32.246094 C 12.519531 -34.519531 15.046875 -37.175781 17.703125 -40.210938 L 17.703125 11 L 31.484375 11 L 31.484375 -58.546875 C 35.152344 -64.238281 38.1875 -70.179688 40.84375 -75.871094 Z M 122.023438 -66.511719 L 87.503906 -66.511719 L 87.503906 -53.109375 L 97.746094 -53.109375 L 97.746094 -5.941406 C 97.746094 -4.425781 97.238281 -4.046875 95.597656 -4.046875 C 94.207031 -3.921875 90.917969 -4.046875 86.996094 -4.046875 L 86.617188 -16.058594 C 80.675781 -15.425781 74.730469 -14.792969 68.914062 -14.164062 L 68.914062 -27.820312 L 84.46875 -27.820312 L 84.46875 -40.71875 L 68.914062 -40.71875 L 68.914062 -53.234375 L 54.753906 -53.234375 L 54.753906 -40.71875 L 39.074219 -40.71875 L 39.074219 -27.820312 L 54.753906 -27.820312 L 54.753906 -12.769531 C 47.671875 -12.140625 41.097656 -11.507812 35.660156 -11.128906 L 37.175781 2.65625 C 50.074219 1.265625 67.398438 -0.632812 83.960938 -2.65625 C 85.605469 1.644531 86.996094 7.082031 87.503906 10.875 C 96.101562 10.875 102.425781 10.621094 106.851562 8.21875 C 111.527344 5.691406 112.539062 1.644531 112.539062 -5.691406 L 112.539062 -53.109375 L 122.023438 -53.109375 Z M 122.023438 -66.511719 "/></g></g></g><path stroke-linecap="butt" transform="matrix(0.75, 0, 0, 0.75, -57.046377, 154.089131)" fill="none" stroke-linejoin="miter" d="M 295.218105 65.381162 L 291.348313 66.370746 L 251.707685 66.370746 L 261.999353 60.48012 C 258.129561 53.235328 249.363935 41.589494 243.103518 33.19366 L 225.077475 42.782203 C 229.973309 49.860328 236.192059 59.125954 240.22331 66.370746 L 174.48893 66.370746 L 174.48893 86.125955 L 276.160812 86.125955 C 258.129561 109.05304 229.275392 135.027 201.613932 151.53221 L 200.624349 151.53221 C 191.363931 151.53221 178.025389 160.464502 165.884763 173.433253 L 180.374347 192.323879 C 187.291014 181.53742 194.905598 170.261378 200.129557 170.261378 C 203.83789 170.261378 209.395182 175.985336 216.639975 180.183253 C 228.12435 187.261379 241.582685 189.485337 262.327478 189.485337 C 278.832687 189.485337 304.311855 188.454087 316.291023 187.589504 C 316.619148 182.198878 319.994148 171.745753 322.014982 166.188461 C 305.999355 168.573877 280.192062 170.261378 262.988936 170.261378 C 245.28581 170.261378 231.129559 169.068669 220.671225 162.646794 C 254.587894 140.417626 289.452479 107.198873 310.733731 75.67283 Z M 477.791033 44.303036 L 435.639989 44.303036 L 435.639989 61.839495 L 477.791033 61.839495 Z M 390.978528 86.782205 L 368.707693 86.782205 L 368.707693 104.157207 L 431.60353 104.157207 L 431.60353 86.782205 L 410.035821 86.782205 L 410.035821 70.443663 L 429.051447 70.443663 L 429.051447 53.73012 L 410.035821 53.73012 L 410.035821 35.209285 L 390.978528 35.209285 L 390.978528 53.73012 L 371.921235 53.73012 L 371.921235 70.443663 L 390.978528 70.443663 Z M 350.514983 35.370744 C 344.754566 45.990536 332.978524 59.495745 322.155607 67.563454 C 325.202482 71.099913 330.264982 78.511372 332.608732 82.584288 C 345.61915 72.459288 359.613942 56.615537 368.546235 41.959286 Z M 354.384775 70.771788 C 346.603525 88.14158 333.473316 105.67804 320.139981 116.625957 C 323.67644 120.823874 329.275399 130.954083 331.129565 135.027 C 334.504566 131.980125 337.837899 128.438458 341.379566 124.365541 L 341.379566 192.652004 L 359.775401 192.652004 L 359.775401 99.954081 C 364.676443 92.339497 368.707693 84.438455 372.24936 76.823871 Z M 480.504575 89.334289 L 434.447281 89.334289 L 434.447281 107.198873 L 448.113948 107.198873 L 448.113948 170.058253 C 448.113948 172.115544 447.45249 172.610336 445.270198 172.610336 C 443.42124 172.771794 439.014989 172.610336 433.785822 172.610336 L 433.291031 156.59471 C 425.348322 157.417627 417.447279 158.28221 409.666029 159.105127 L 409.666029 140.912417 L 430.410822 140.912417 L 430.410822 123.709291 L 409.666029 123.709291 L 409.666029 107.037415 L 390.811861 107.037415 L 390.811861 123.709291 L 369.90561 123.709291 L 369.90561 140.912417 L 390.811861 140.912417 L 390.811861 160.959294 C 381.348319 161.823877 372.577485 162.646794 365.332693 163.183252 L 367.353526 181.53742 C 384.556652 179.688461 407.650404 177.178045 429.754572 174.459294 C 431.936864 180.183253 433.785822 187.428045 434.447281 192.490546 C 445.931656 192.490546 454.369157 192.157212 460.254574 188.948879 C 466.509783 185.573879 467.827491 180.183253 467.827491 170.428044 L 467.827491 107.198873 L 480.504575 107.198873 Z M 480.504575 89.334289 " stroke="#55a630" stroke-width="4.004416" stroke-opacity="1" stroke-miterlimit="4"/></svg>