<svg xmlns="http://www.w3.org/2000/svg" xmlns:xlink="http://www.w3.org/1999/xlink" width="500" zoomAndPan="magnify" viewBox="0 0 375 374.999991" height="500" preserveAspectRatio="xMidYMid meet" version="1.0"><defs><g/></defs><g fill="#55a630" fill-opacity="1"><g transform="translate(19.364169, 191.38443)"><g><path d="M 60.761719 -65.042969 L 60.761719 -78.789062 C 60.761719 -79.1875 60.363281 -79.6875 59.664062 -79.6875 L 46.714844 -79.6875 C 26.894531 -79.6875 0 -73.910156 0 -39.84375 C 0 -4.480469 27.191406 0 46.714844 0 L 59.664062 0 C 60.363281 0 60.761719 -0.496094 60.761719 -0.894531 L 60.761719 -49.703125 L 30.179688 -49.703125 L 30.179688 -34.464844 L 45.519531 -34.464844 L 45.519531 -14.542969 C 28.1875 -13.644531 15.339844 -20.917969 15.339844 -39.84375 C 15.339844 -64.445312 35.859375 -65.441406 45.519531 -65.042969 Z M 60.761719 -65.042969 "/></g></g></g><g fill="#55a630" fill-opacity="1"><g transform="translate(93.066503, 191.38443)"><g><path d="M 54.386719 -1.292969 C 49.40625 -12.351562 44.027344 -23.308594 39.046875 -34.5625 C 47.015625 -37.453125 53.6875 -43.828125 53.6875 -55.980469 C 53.6875 -79.488281 31.277344 -79.6875 26.792969 -79.6875 L 0.996094 -79.6875 C 0.496094 -79.6875 0 -79.1875 0 -78.789062 L 0 -65.242188 L 26.792969 -65.242188 C 29.183594 -65.242188 38.546875 -64.746094 38.546875 -55.980469 C 38.546875 -47.214844 30.082031 -46.816406 26.792969 -46.816406 L 0 -46.816406 L 0 -0.894531 C 0 -0.496094 0.496094 0 0.996094 0 L 14.042969 0 C 14.640625 0 15.140625 -0.496094 15.140625 -0.894531 L 15.140625 -32.171875 L 23.707031 -32.171875 L 38.25 -0.597656 C 38.347656 -0.296875 38.945312 0 39.246094 0 L 53.488281 0 C 54.285156 0 54.683594 -0.597656 54.386719 -1.292969 Z M 54.386719 -1.292969 "/></g></g></g><g fill="#55a630" fill-opacity="1"><g transform="translate(160.195514, 191.38443)"><g><path d="M 37.851562 -14.839844 L 15.238281 -14.839844 L 15.238281 -32.769531 L 46.515625 -32.769531 C 47.113281 -32.769531 47.613281 -33.269531 47.613281 -33.667969 L 47.613281 -46.316406 C 47.613281 -46.816406 47.113281 -47.214844 46.515625 -47.214844 L 15.238281 -47.214844 L 15.238281 -65.242188 L 37.851562 -65.242188 L 37.851562 -79.6875 L 1.09375 -79.6875 C 0.496094 -79.6875 0 -79.1875 0 -78.789062 L 0 -0.894531 C 0 -0.496094 0.496094 0 1.09375 0 L 37.851562 0 Z M 37.851562 -14.839844 "/></g></g></g><g fill="#55a630" fill-opacity="1"><g transform="translate(220.054051, 191.38443)"><g><path d="M 37.851562 -14.839844 L 15.238281 -14.839844 L 15.238281 -32.769531 L 46.515625 -32.769531 C 47.113281 -32.769531 47.613281 -33.269531 47.613281 -33.667969 L 47.613281 -46.316406 C 47.613281 -46.816406 47.113281 -47.214844 46.515625 -47.214844 L 15.238281 -47.214844 L 15.238281 -65.242188 L 37.851562 -65.242188 L 37.851562 -79.6875 L 1.09375 -79.6875 C 0.496094 -79.6875 0 -79.1875 0 -78.789062 L 0 -0.894531 C 0 -0.496094 0.496094 0 1.09375 0 L 37.851562 0 Z M 37.851562 -14.839844 "/></g></g></g><g fill="#55a630" fill-opacity="1"><g transform="translate(279.912589, 191.38443)"><g><path d="M 65.941406 -79.6875 L 53.089844 -79.6875 C 52.394531 -79.6875 51.894531 -79.1875 51.894531 -78.789062 L 51.894531 -26.894531 L 15.140625 -79.386719 C 15.039062 -79.585938 14.441406 -79.6875 14.242188 -79.6875 L 0.996094 -79.6875 C 0.496094 -79.6875 0 -79.1875 0 -78.789062 L 0 -19.125 L 15.238281 -19.125 L 15.238281 -52.792969 L 51.894531 -0.296875 C 51.996094 -0.0976562 52.59375 0 52.792969 0 L 65.941406 0 C 66.636719 0 67.035156 -0.496094 67.035156 -0.894531 L 67.035156 -78.789062 C 67.035156 -79.1875 66.636719 -79.6875 65.941406 -79.6875 Z M 65.941406 -79.6875 "/></g></g></g><g fill="#ffffff" fill-opacity="1"><g transform="translate(9.508987, 267.814728)"><g><path d="M 31.59375 -25.84375 L 17.5625 -29.15625 C 11.96875 -30.476562 8.15625 -32.503906 6.125 -35.234375 C 4.101562 -37.960938 3.09375 -41.863281 3.09375 -46.9375 C 3.09375 -54.96875 5.207031 -60.878906 9.4375 -64.671875 C 13.675781 -68.460938 20.25 -70.359375 29.15625 -70.359375 C 32.84375 -70.359375 36.117188 -70.207031 38.984375 -69.90625 C 41.859375 -69.613281 44.507812 -69.101562 46.9375 -68.375 L 46.9375 -53.015625 C 41.34375 -53.972656 37.492188 -54.523438 35.390625 -54.671875 C 33.296875 -54.816406 31.109375 -54.890625 28.828125 -54.890625 C 25.734375 -54.890625 23.484375 -54.375 22.078125 -53.34375 C 20.679688 -52.3125 19.984375 -50.582031 19.984375 -48.15625 C 19.984375 -46.976562 20.203125 -46.078125 20.640625 -45.453125 C 21.085938 -44.828125 21.9375 -44.367188 23.1875 -44.078125 L 36.453125 -40.984375 C 40.273438 -40.097656 43.035156 -39.226562 44.734375 -38.375 C 46.429688 -37.53125 47.789062 -36.445312 48.8125 -35.125 C 50 -33.726562 50.867188 -31.921875 51.421875 -29.703125 C 51.972656 -27.492188 52.25 -24.8125 52.25 -21.65625 C 52.25 -13.625 50.113281 -7.820312 45.84375 -4.25 C 41.570312 -0.675781 34.941406 1.109375 25.953125 1.109375 C 21.390625 1.109375 17.046875 0.832031 12.921875 0.28125 C 8.796875 -0.269531 5.59375 -0.953125 3.3125 -1.765625 L 3.3125 -18 C 6.257812 -17.039062 9.753906 -16.285156 13.796875 -15.734375 C 17.847656 -15.179688 21.898438 -14.90625 25.953125 -14.90625 C 29.191406 -14.90625 31.4375 -15.3125 32.6875 -16.125 C 33.945312 -16.9375 34.578125 -18.554688 34.578125 -20.984375 C 34.578125 -22.535156 34.375 -23.660156 33.96875 -24.359375 C 33.5625 -25.054688 32.769531 -25.550781 31.59375 -25.84375 Z M 31.59375 -25.84375 "/></g></g></g><g fill="#ffffff" fill-opacity="1"><g transform="translate(57.331439, 267.814728)"><g><path d="M 56.21875 -69.25 L 56.21875 -53.796875 L 37.328125 -53.796875 L 37.328125 0 L 20.21875 0 L 20.21875 -53.796875 L 1.328125 -53.796875 L 1.328125 -69.25 Z M 56.21875 -69.25 "/></g></g></g><g fill="#ffffff" fill-opacity="1"><g transform="translate(108.688167, 267.814728)"><g><path d="M 22.421875 -22.3125 L 22.421875 0 L 5.296875 0 L 5.296875 -69.25 L 30.59375 -69.25 C 41.269531 -69.25 48.851562 -67.445312 53.34375 -63.84375 C 57.84375 -60.238281 60.09375 -54.238281 60.09375 -45.84375 C 60.09375 -40.164062 58.894531 -35.539062 56.5 -31.96875 C 54.101562 -28.40625 50.472656 -25.8125 45.609375 -24.1875 L 62.515625 0 L 41.96875 0 L 27.609375 -22.3125 Z M 42.75 -45.84375 C 42.75 -48.78125 41.863281 -50.835938 40.09375 -52.015625 C 38.320312 -53.203125 35.15625 -53.796875 30.59375 -53.796875 L 22.421875 -53.796875 L 22.421875 -36.125 L 30.59375 -36.125 C 35.15625 -36.125 38.320312 -36.835938 40.09375 -38.265625 C 41.863281 -39.703125 42.75 -42.226562 42.75 -45.84375 Z M 42.75 -45.84375 "/></g></g></g><g fill="#ffffff" fill-opacity="1"><g transform="translate(166.229888, 267.814728)"><g><path d="M 53.015625 -16.015625 L 53.015625 0 L 5.296875 0 L 5.296875 -69.25 L 52.015625 -69.25 L 52.015625 -53.796875 L 22.421875 -53.796875 L 22.421875 -42.296875 L 47.9375 -42.296875 L 47.9375 -27.9375 L 22.421875 -27.9375 L 22.421875 -16.015625 Z M 53.015625 -16.015625 "/></g></g></g><g fill="#ffffff" fill-opacity="1"><g transform="translate(215.819469, 267.814728)"><g><path d="M 53.015625 -16.015625 L 53.015625 0 L 5.296875 0 L 5.296875 -69.25 L 52.015625 -69.25 L 52.015625 -53.796875 L 22.421875 -53.796875 L 22.421875 -42.296875 L 47.9375 -42.296875 L 47.9375 -27.9375 L 22.421875 -27.9375 L 22.421875 -16.015625 Z M 53.015625 -16.015625 "/></g></g></g><g fill="#ffffff" fill-opacity="1"><g transform="translate(265.40905, 267.814728)"><g><path d="M 56.21875 -69.25 L 56.21875 -53.796875 L 37.328125 -53.796875 L 37.328125 0 L 20.21875 0 L 20.21875 -53.796875 L 1.328125 -53.796875 L 1.328125 -69.25 Z M 56.21875 -69.25 "/></g></g></g><g fill="#ffffff" fill-opacity="1"><g transform="translate(316.765769, 267.814728)"><g><path d="M 31.59375 -25.84375 L 17.5625 -29.15625 C 11.96875 -30.476562 8.15625 -32.503906 6.125 -35.234375 C 4.101562 -37.960938 3.09375 -41.863281 3.09375 -46.9375 C 3.09375 -54.96875 5.207031 -60.878906 9.4375 -64.671875 C 13.675781 -68.460938 20.25 -70.359375 29.15625 -70.359375 C 32.84375 -70.359375 36.117188 -70.207031 38.984375 -69.90625 C 41.859375 -69.613281 44.507812 -69.101562 46.9375 -68.375 L 46.9375 -53.015625 C 41.34375 -53.972656 37.492188 -54.523438 35.390625 -54.671875 C 33.296875 -54.816406 31.109375 -54.890625 28.828125 -54.890625 C 25.734375 -54.890625 23.484375 -54.375 22.078125 -53.34375 C 20.679688 -52.3125 19.984375 -50.582031 19.984375 -48.15625 C 19.984375 -46.976562 20.203125 -46.078125 20.640625 -45.453125 C 21.085938 -44.828125 21.9375 -44.367188 23.1875 -44.078125 L 36.453125 -40.984375 C 40.273438 -40.097656 43.035156 -39.226562 44.734375 -38.375 C 46.429688 -37.53125 47.789062 -36.445312 48.8125 -35.125 C 50 -33.726562 50.867188 -31.921875 51.421875 -29.703125 C 51.972656 -27.492188 52.25 -24.8125 52.25 -21.65625 C 52.25 -13.625 50.113281 -7.820312 45.84375 -4.25 C 41.570312 -0.675781 34.941406 1.109375 25.953125 1.109375 C 21.390625 1.109375 17.046875 0.832031 12.921875 0.28125 C 8.796875 -0.269531 5.59375 -0.953125 3.3125 -1.765625 L 3.3125 -18 C 6.257812 -17.039062 9.753906 -16.285156 13.796875 -15.734375 C 17.847656 -15.179688 21.898438 -14.90625 25.953125 -14.90625 C 29.191406 -14.90625 31.4375 -15.3125 32.6875 -16.125 C 33.945312 -16.9375 34.578125 -18.554688 34.578125 -20.984375 C 34.578125 -22.535156 34.375 -23.660156 33.96875 -24.359375 C 33.5625 -25.054688 32.769531 -25.550781 31.59375 -25.84375 Z M 31.59375 -25.84375 "/></g></g></g><path stroke-linecap="butt" transform="matrix(1.218295, 0, 0, 1.218295, -51.291566, 152.076669)" fill="none" stroke-linejoin="miter" d="M 75.825211 73.794748 L 64.314507 71.072579 C 59.726257 69.982429 56.596885 68.321553 54.929596 66.093157 C 53.278339 63.851937 52.451107 60.642406 52.451107 56.464566 C 52.451107 49.885188 54.185729 45.037226 57.651765 41.923885 C 61.13704 38.810544 66.530077 37.25227 73.834084 37.25227 C 76.857648 37.25227 79.55096 37.377317 81.910815 37.630617 C 84.273876 37.864678 86.447764 38.284707 88.442097 38.890702 L 88.442097 51.485144 C 83.850641 50.702801 80.695618 50.253915 78.967409 50.135281 C 77.242407 50.000616 75.440452 49.936489 73.567959 49.936489 C 71.02855 49.936489 69.184914 50.36293 68.033843 51.219019 C 66.882773 52.059076 66.308841 53.476271 66.308841 55.470605 C 66.308841 56.442121 66.491601 57.189195 66.860329 57.705413 C 67.229056 58.2056 67.921622 58.583946 68.941233 58.834039 L 79.82991 61.357416 C 82.975315 62.094871 85.23898 62.809881 86.627318 63.502447 C 88.01245 64.19822 89.128251 65.083165 89.968308 66.16049 C 90.94303 67.311561 91.651628 68.792882 92.094101 70.607662 C 92.549399 72.422442 92.780254 74.628393 92.780254 77.225515 C 92.780254 83.820924 91.023189 88.588729 87.512263 91.525722 C 84.014164 94.446683 78.585857 95.908767 71.22093 95.908767 C 67.472737 95.908767 63.900891 95.677912 60.5086 95.222614 C 57.129134 94.780141 54.503155 94.219034 52.627455 93.539293 L 52.627455 80.21381 C 55.04823 81.012184 57.91789 81.637418 61.239642 82.095922 C 64.558188 82.538395 67.886352 82.759631 71.22093 82.759631 C 73.875766 82.759631 75.71299 82.42938 76.732601 81.762464 C 77.765038 81.098755 78.281256 79.771337 78.281256 77.780209 C 78.281256 76.510505 78.111321 75.587084 77.77145 75.013152 C 77.447611 74.43922 76.799934 74.032016 75.825211 73.794748 Z M 135.30894 38.15966 L 135.30894 50.843879 L 119.793536 50.843879 L 119.793536 95.001377 L 105.759455 95.001377 L 105.759455 50.843879 L 90.244052 50.843879 L 90.244052 38.15966 Z M 149.708542 76.696472 L 149.708542 95.001377 L 135.674461 95.001377 L 135.674461 38.15966 L 156.43541 38.15966 C 165.201501 38.15966 171.42177 39.644188 175.096218 42.610038 C 178.783491 45.559857 180.627127 50.481564 180.627127 57.371955 C 180.627127 62.033951 179.645992 65.833445 177.683721 68.770438 C 175.721451 71.694606 172.749188 73.817193 168.763727 75.144611 L 182.621461 95.001377 L 165.752989 95.001377 L 153.979366 76.696472 Z M 166.39746 57.371955 C 166.39746 54.951181 165.672831 53.261448 164.226778 52.302757 C 162.780726 51.33124 160.183603 50.843879 156.43541 50.843879 L 149.708542 50.843879 L 149.708542 65.362116 L 156.43541 65.362116 C 160.183603 65.362116 162.780726 64.772152 164.226778 63.592224 C 165.672831 62.412297 166.39746 60.337805 166.39746 57.371955 Z M 222.059249 81.852241 L 222.059249 95.001377 L 182.906824 95.001377 L 182.906824 38.15966 L 221.241637 38.15966 L 221.241637 50.843879 L 196.937699 50.843879 L 196.937699 60.273679 L 217.900647 60.273679 L 217.900647 72.069746 L 196.937699 72.069746 L 196.937699 81.852241 Z M 262.763536 81.852241 L 262.763536 95.001377 L 223.61111 95.001377 L 223.61111 38.15966 L 261.945924 38.15966 L 261.945924 50.843879 L 237.641985 50.843879 L 237.641985 60.273679 L 258.604934 60.273679 L 258.604934 72.069746 L 237.641985 72.069746 L 237.641985 81.852241 Z M 306.103422 38.15966 L 306.103422 50.843879 L 290.588018 50.843879 L 290.588018 95.001377 L 276.553937 95.001377 L 276.553937 50.843879 L 261.038534 50.843879 L 261.038534 38.15966 Z M 328.028267 73.794748 L 316.517563 71.072579 C 311.929313 69.982429 308.79994 68.321553 307.132652 66.093157 C 305.481395 63.851937 304.654163 60.642406 304.654163 56.464566 C 304.654163 49.885188 306.388784 45.037226 309.854821 41.923885 C 313.336889 38.810544 318.729927 37.25227 326.033933 37.25227 C 329.060703 37.25227 331.754016 37.377317 334.113871 37.630617 C 336.473725 37.864678 338.650819 38.284707 340.641947 38.890702 L 340.641947 51.485144 C 336.053697 50.702801 332.895467 50.253915 331.170465 50.135281 C 329.442256 50.000616 327.643508 49.936489 325.771015 49.936489 C 323.231606 49.936489 321.387969 50.36293 320.236899 51.219019 C 319.085829 52.059076 318.50869 53.476271 318.50869 55.470605 C 318.50869 56.442121 318.694657 57.189195 319.063384 57.705413 C 319.432112 58.2056 320.124678 58.583946 321.144289 58.834039 L 332.032966 61.357416 C 335.175164 62.094871 337.442035 62.809881 338.827167 63.502447 C 340.215506 64.19822 341.3281 65.083165 342.171364 66.16049 C 343.146086 67.311561 343.851477 68.792882 344.29395 70.607662 C 344.752455 72.422442 344.980104 74.628393 344.980104 77.225515 C 344.980104 83.820924 343.226244 88.588729 339.715319 91.525722 C 336.217219 94.446683 330.785706 95.908767 323.423985 95.908767 C 319.675792 95.908767 316.103947 95.677912 312.711656 95.222614 C 309.33219 94.780141 306.706211 94.219034 304.830511 93.539293 L 304.830511 80.21381 C 307.251286 81.012184 310.120946 81.637418 313.439492 82.095922 C 316.761244 82.538395 320.089408 82.759631 323.423985 82.759631 C 326.078822 82.759631 327.916046 82.42938 328.935657 81.762464 C 329.968093 81.098755 330.484311 79.771337 330.484311 77.780209 C 330.484311 76.510505 330.314376 75.587084 329.974506 75.013152 C 329.650667 74.43922 328.999783 74.032016 328.028267 73.794748 Z M 328.028267 73.794748 " stroke="#55a630" stroke-width="2.153337" stroke-opacity="1" stroke-miterlimit="4"/></svg>