<svg xmlns="http://www.w3.org/2000/svg" xmlns:xlink="http://www.w3.org/1999/xlink" width="500" zoomAndPan="magnify" viewBox="0 0 375 374.999991" height="500" preserveAspectRatio="xMidYMid meet" version="1.0"><defs><g/></defs><g fill="#55a630" fill-opacity="1"><g transform="translate(112.320098, 227.523768)"><g><path d="M 84.917969 -90.90625 L 84.917969 -110.117188 C 84.917969 -110.675781 84.363281 -111.371094 83.386719 -111.371094 L 65.289062 -111.371094 C 37.585938 -111.371094 0 -103.296875 0 -55.683594 C 0 -6.265625 38.003906 0 65.289062 0 L 83.386719 0 C 84.363281 0 84.917969 -0.695312 84.917969 -1.253906 L 84.917969 -69.46875 L 42.179688 -69.46875 L 42.179688 -48.167969 L 63.621094 -48.167969 L 63.621094 -20.324219 C 39.398438 -19.070312 21.4375 -29.234375 21.4375 -55.683594 C 21.4375 -90.070312 50.117188 -91.464844 63.621094 -90.90625 Z M 84.917969 -90.90625 "/></g></g></g><g fill="#ffffff" fill-opacity="1"><g transform="translate(186.150064, 262.492423)"><g><path d="M 42.828125 -35.03125 L 23.8125 -39.53125 C 16.21875 -41.320312 11.046875 -44.066406 8.296875 -47.765625 C 5.554688 -51.460938 4.1875 -56.753906 4.1875 -63.640625 C 4.1875 -74.515625 7.054688 -82.519531 12.796875 -87.65625 C 18.535156 -92.800781 27.445312 -95.375 39.53125 -95.375 C 44.519531 -95.375 48.960938 -95.175781 52.859375 -94.78125 C 56.753906 -94.382812 60.347656 -93.6875 63.640625 -92.6875 L 63.640625 -71.875 C 56.046875 -73.164062 50.828125 -73.910156 47.984375 -74.109375 C 45.140625 -74.316406 42.171875 -74.421875 39.078125 -74.421875 C 34.890625 -74.421875 31.847656 -73.71875 29.953125 -72.3125 C 28.054688 -70.914062 27.109375 -68.570312 27.109375 -65.28125 C 27.109375 -63.6875 27.40625 -62.460938 28 -61.609375 C 28.601562 -60.765625 29.75 -60.144531 31.4375 -59.75 L 49.40625 -55.546875 C 54.601562 -54.347656 58.347656 -53.175781 60.640625 -52.03125 C 62.941406 -50.882812 64.789062 -49.410156 66.1875 -47.609375 C 67.78125 -45.710938 68.953125 -43.265625 69.703125 -40.265625 C 70.453125 -37.273438 70.828125 -33.632812 70.828125 -29.34375 C 70.828125 -18.46875 67.929688 -10.609375 62.140625 -5.765625 C 56.347656 -0.921875 47.363281 1.5 35.1875 1.5 C 29 1.5 23.109375 1.125 17.515625 0.375 C 11.929688 -0.375 7.585938 -1.296875 4.484375 -2.390625 L 4.484375 -24.40625 C 8.484375 -23.101562 13.226562 -22.078125 18.71875 -21.328125 C 24.207031 -20.585938 29.695312 -20.21875 35.1875 -20.21875 C 39.582031 -20.21875 42.625 -20.765625 44.3125 -21.859375 C 46.007812 -22.960938 46.859375 -25.160156 46.859375 -28.453125 C 46.859375 -30.546875 46.582031 -32.066406 46.03125 -33.015625 C 45.488281 -33.960938 44.421875 -34.632812 42.828125 -35.03125 Z M 42.828125 -35.03125 "/></g></g></g><path stroke-linecap="butt" transform="matrix(1.651547, 0, 0, 1.651547, -104.548085, 105.595423)" fill="none" stroke-linejoin="miter" d="M 201.934939 73.795784 L 190.425846 71.073432 C 185.834981 69.980707 182.708178 68.320332 181.040708 66.092308 C 179.387429 63.850092 178.561972 60.640507 178.561972 56.465919 C 178.561972 49.88355 180.295668 45.037242 183.76306 41.922266 C 187.244644 38.809655 192.637314 37.253349 199.941071 37.253349 C 202.966169 37.253349 205.660139 37.378705 208.020615 37.629417 C 210.381091 37.865937 212.559445 38.286944 214.550949 38.890072 L 214.550949 51.484794 C 209.962449 50.701911 206.804899 50.252522 205.078298 50.134262 C 203.351698 50.00181 201.551776 49.935584 199.676167 49.935584 C 197.138301 49.935584 195.29344 50.363687 194.14395 51.219891 C 192.992095 52.05954 192.41735 53.476298 192.41735 55.470167 C 192.41735 56.442267 192.601836 57.187307 192.970808 57.705287 C 193.33978 58.20671 194.032786 58.582778 195.049824 58.83349 L 205.941599 61.357165 C 209.082592 62.095109 211.34846 62.809402 212.734471 63.504772 C 214.122847 64.197778 215.236859 65.082365 216.078872 66.158533 C 217.050972 67.310389 217.760534 68.793373 218.202827 70.607486 C 218.659312 72.423965 218.888737 74.630702 218.888737 77.227698 C 218.888737 83.821893 217.133754 88.587784 213.621423 91.52537 C 210.123283 94.446399 204.69277 95.908097 197.329883 95.908097 C 193.583396 95.908097 190.011935 95.678672 186.617864 95.222187 C 183.237985 94.777528 180.612606 94.216974 178.736997 93.53816 L 178.736997 80.214954 C 181.158968 81.012028 184.027963 81.638808 187.348713 82.095293 C 190.667097 82.537586 193.994942 82.759916 197.329883 82.759916 C 199.986009 82.759916 201.823775 82.428787 202.840813 81.764164 C 203.874408 81.099541 204.390023 79.77266 204.390023 77.778791 C 204.390023 76.511041 204.222094 75.58861 203.881504 75.013865 C 203.557471 74.436755 202.907039 74.032305 201.934939 73.795784 Z M 201.934939 73.795784 " stroke="#55a630" stroke-width="2.153337" stroke-opacity="1" stroke-miterlimit="4"/></svg>