<svg xmlns="http://www.w3.org/2000/svg" xmlns:xlink="http://www.w3.org/1999/xlink" width="500" zoomAndPan="magnify" viewBox="0 0 375 374.999991" height="500" preserveAspectRatio="xMidYMid meet" version="1.0"><defs><g/></defs><g fill="#ffffff" fill-opacity="1"><g transform="translate(161.389902, 293.153007)"><g><path d="M 142.09375 -118.734375 L 104.660156 -118.734375 L 104.660156 -103.164062 L 142.09375 -103.164062 Z M 64.984375 -81.003906 L 45.21875 -81.003906 L 45.21875 -65.582031 L 101.066406 -65.582031 L 101.066406 -81.003906 L 81.902344 -81.003906 L 81.902344 -95.527344 L 98.820312 -95.527344 L 98.820312 -110.351562 L 81.902344 -110.351562 L 81.902344 -126.820312 L 64.984375 -126.820312 L 64.984375 -110.351562 L 48.0625 -110.351562 L 48.0625 -95.527344 L 64.984375 -95.527344 Z M 29.046875 -126.671875 C 23.957031 -117.238281 13.476562 -105.257812 3.894531 -98.074219 C 6.589844 -94.929688 11.078125 -88.339844 13.175781 -84.746094 C 24.707031 -93.730469 37.132812 -107.804688 45.070312 -120.832031 Z M 32.492188 -95.226562 C 25.605469 -79.804688 13.925781 -64.234375 2.097656 -54.5 C 5.242188 -50.757812 10.179688 -41.773438 11.828125 -38.179688 C 14.824219 -40.875 17.816406 -44.019531 20.960938 -47.613281 L 20.960938 13.027344 L 37.28125 13.027344 L 37.28125 -69.324219 C 41.625 -76.0625 45.21875 -83.101562 48.363281 -89.835938 Z M 144.488281 -78.757812 L 103.613281 -78.757812 L 103.613281 -62.886719 L 115.742188 -62.886719 L 115.742188 -7.039062 C 115.742188 -5.242188 115.140625 -4.792969 113.195312 -4.792969 C 111.546875 -4.640625 107.65625 -4.792969 103.015625 -4.792969 L 102.566406 -19.015625 C 95.527344 -18.265625 88.488281 -17.519531 81.601562 -16.769531 L 81.601562 -32.941406 L 100.019531 -32.941406 L 100.019531 -48.210938 L 81.601562 -48.210938 L 81.601562 -63.035156 L 64.832031 -63.035156 L 64.832031 -48.210938 L 46.265625 -48.210938 L 46.265625 -32.941406 L 64.832031 -32.941406 L 64.832031 -15.121094 C 56.449219 -14.375 48.660156 -13.625 42.222656 -13.175781 L 44.019531 3.144531 C 59.292969 1.496094 79.804688 -0.75 99.421875 -3.144531 C 101.367188 1.945312 103.015625 8.386719 103.613281 12.875 C 113.792969 12.875 121.28125 12.578125 126.519531 9.730469 C 132.0625 6.738281 133.257812 1.945312 133.257812 -6.738281 L 133.257812 -62.886719 L 144.488281 -62.886719 Z M 144.488281 -78.757812 "/></g></g></g><path stroke-linecap="butt" transform="matrix(1.651547, 0, 0, 1.651547, 148.177524, 136.256007)" fill="none" stroke-linejoin="miter" d="M 94.034812 23.109157 L 71.369041 23.109157 L 71.369041 32.539234 L 94.034812 32.539234 Z M 47.352738 45.952318 L 35.380064 45.952318 L 35.380064 55.292518 L 69.200147 55.292518 L 69.200147 45.952318 L 57.601176 45.952318 L 57.601176 37.165578 L 67.828327 37.165578 L 67.828327 28.177794 L 57.601176 28.177794 L 57.601176 18.217911 L 47.352738 18.217911 L 47.352738 28.177794 L 37.106665 28.177794 L 37.106665 37.165578 L 47.352738 37.165578 Z M 25.595206 18.305424 C 22.496786 24.017397 16.167494 31.276214 10.346722 35.614002 C 11.983445 37.517993 14.705797 41.503366 15.968817 43.693547 C 22.962732 38.248842 30.488818 29.727004 35.290186 21.848502 Z M 27.676588 37.340603 C 23.492538 46.680802 16.432397 56.110879 9.261092 61.997877 C 11.165083 64.256649 14.175991 69.701354 15.171743 71.891534 C 16.985856 70.254812 18.778682 68.350821 20.682673 66.16064 L 20.682673 102.880466 L 30.57633 102.880466 L 30.57633 53.033746 C 33.21117 48.939574 35.380064 44.689298 37.284055 40.595127 Z M 95.494144 47.324138 L 70.72807 47.324138 L 70.72807 56.92924 L 78.0744 56.92924 L 78.0744 90.728036 C 78.0744 91.834953 77.721985 92.099856 76.548842 92.099856 C 75.553091 92.189734 73.183154 92.099856 70.373289 92.099856 L 70.108386 83.490505 C 65.834459 83.932799 61.586548 84.398745 57.402499 84.841038 L 57.402499 75.058546 L 68.559176 75.058546 L 68.559176 65.805859 L 57.402499 65.805859 L 57.402499 56.841728 L 47.265225 56.841728 L 47.265225 65.805859 L 36.021035 65.805859 L 36.021035 75.058546 L 47.265225 75.058546 L 47.265225 85.83679 C 42.175301 86.30037 37.45908 86.745029 33.563586 87.031219 L 34.649215 96.90359 C 43.901902 95.907838 56.319234 94.557305 68.204395 93.095608 C 69.377537 96.172741 70.373289 100.068235 70.72807 102.790588 C 76.903623 102.790588 81.440089 102.613197 84.604735 100.886597 C 87.970423 99.072484 88.67762 96.172741 88.67762 90.926714 L 88.67762 56.92924 L 95.494144 56.92924 Z M 95.494144 47.324138 " stroke="#55a630" stroke-width="2.153337" stroke-opacity="1" stroke-miterlimit="4"/><g fill="#55a630" fill-opacity="1"><g transform="translate(56.40548, 196.760294)"><g><path d="M 30.070312 -43.992188 C 38.703125 -55.128906 47.191406 -68.214844 53.734375 -80.882812 L 40.371094 -88.957031 C 38.285156 -84.363281 35.917969 -79.492188 33.273438 -75.035156 L 23.25 -74.199219 C 30.347656 -85.199219 37.308594 -98.5625 41.625 -110.8125 L 25.894531 -118.191406 C 21.855469 -102.460938 13.644531 -85.476562 10.996094 -81.160156 C 8.492188 -76.707031 6.125 -73.921875 3.339844 -73.085938 C 5.289062 -68.632812 8.074219 -60.835938 8.910156 -57.632812 C 10.859375 -58.609375 13.921875 -59.445312 24.78125 -60.835938 C 20.742188 -54.292969 16.984375 -49.28125 15.035156 -47.054688 C 10.996094 -42.042969 8.074219 -38.839844 4.734375 -38.144531 C 6.542969 -34.105469 8.910156 -26.730469 9.746094 -23.667969 C 13.085938 -25.753906 18.65625 -27.425781 49.839844 -33.410156 C 49.699219 -36.613281 49.839844 -43.015625 50.394531 -47.332031 Z M 8.910156 5.984375 C 21.300781 1.390625 36.890625 -4.453125 51.507812 -10.164062 L 48.722656 -23.667969 C 32.574219 -18.375 16.007812 -12.808594 5.152344 -9.746094 Z M 120.835938 -52.621094 C 116.800781 -48.027344 110.535156 -42.179688 104.550781 -37.167969 C 103.574219 -38.703125 102.738281 -40.234375 101.902344 -41.765625 L 101.902344 -56.519531 L 134.757812 -56.519531 L 134.757812 -70.859375 L 124.316406 -70.859375 C 125.292969 -84.222656 125.988281 -100.234375 126.265625 -113.738281 L 114.570312 -114.433594 L 112.625 -113.875 L 61.113281 -113.875 L 61.113281 -99.953125 L 110.117188 -99.953125 L 109.839844 -91.742188 L 63.480469 -91.742188 L 63.480469 -79.351562 L 109.144531 -79.351562 C 109.003906 -76.429688 108.726562 -73.644531 108.585938 -70.859375 L 57.078125 -70.859375 L 57.078125 -56.519531 L 86.589844 -56.519531 L 86.589844 -34.804688 C 73.503906 -26.449219 60 -17.957031 51.230469 -12.945312 L 59.863281 -0.277344 C 67.9375 -5.847656 77.402344 -12.667969 86.589844 -19.628906 L 86.589844 -4.175781 C 86.589844 -2.644531 86.035156 -2.226562 84.503906 -2.226562 C 82.832031 -2.226562 77.820312 -2.089844 72.949219 -2.367188 C 74.898438 1.671875 76.984375 7.65625 77.542969 11.832031 C 85.753906 11.832031 91.742188 11.554688 96.058594 9.328125 C 100.652344 6.960938 101.902344 3.203125 101.902344 -3.898438 L 101.902344 -19.628906 C 108.726562 -10.582031 117.21875 -3.339844 126.960938 1.253906 C 129.191406 -2.644531 133.503906 -8.492188 136.984375 -11.277344 C 127.242188 -14.757812 118.46875 -20.742188 111.789062 -27.84375 C 118.886719 -32.855469 127.101562 -38.839844 134.0625 -44.828125 Z M 82.972656 -37.726562 C 79.910156 -42.320312 73.085938 -48.863281 67.519531 -53.039062 L 56.800781 -45.105469 C 62.367188 -40.371094 68.910156 -33.550781 71.695312 -28.957031 Z M 82.972656 -37.726562 "/></g></g></g></svg>